%TF.GenerationSoftware,KiCad,Pcbnew,8.0.6-8.0.6-0~ubuntu24.04.1*%
%TF.CreationDate,2024-10-21T14:05:21+02:00*%
%TF.ProjectId,Electronics,456c6563-7472-46f6-9e69-63732e6b6963,rev?*%
%TF.SameCoordinates,Original*%
%TF.FileFunction,Legend,Top*%
%TF.FilePolarity,Positive*%
%FSLAX46Y46*%
G04 Gerber Fmt 4.6, Leading zero omitted, Abs format (unit mm)*
G04 Created by KiCad (PCBNEW 8.0.6-8.0.6-0~ubuntu24.04.1) date 2024-10-21 14:05:21*
%MOMM*%
%LPD*%
G01*
G04 APERTURE LIST*
%ADD10C,0.150000*%
%ADD11C,0.120000*%
G04 APERTURE END LIST*
D10*
X104380952Y-65954819D02*
X103904762Y-65954819D01*
X103904762Y-65954819D02*
X103904762Y-64954819D01*
X104714286Y-65954819D02*
X104714286Y-65288152D01*
X104714286Y-64954819D02*
X104666667Y-65002438D01*
X104666667Y-65002438D02*
X104714286Y-65050057D01*
X104714286Y-65050057D02*
X104761905Y-65002438D01*
X104761905Y-65002438D02*
X104714286Y-64954819D01*
X104714286Y-64954819D02*
X104714286Y-65050057D01*
X105619047Y-65288152D02*
X105619047Y-66097676D01*
X105619047Y-66097676D02*
X105571428Y-66192914D01*
X105571428Y-66192914D02*
X105523809Y-66240533D01*
X105523809Y-66240533D02*
X105428571Y-66288152D01*
X105428571Y-66288152D02*
X105285714Y-66288152D01*
X105285714Y-66288152D02*
X105190476Y-66240533D01*
X105619047Y-65907200D02*
X105523809Y-65954819D01*
X105523809Y-65954819D02*
X105333333Y-65954819D01*
X105333333Y-65954819D02*
X105238095Y-65907200D01*
X105238095Y-65907200D02*
X105190476Y-65859580D01*
X105190476Y-65859580D02*
X105142857Y-65764342D01*
X105142857Y-65764342D02*
X105142857Y-65478628D01*
X105142857Y-65478628D02*
X105190476Y-65383390D01*
X105190476Y-65383390D02*
X105238095Y-65335771D01*
X105238095Y-65335771D02*
X105333333Y-65288152D01*
X105333333Y-65288152D02*
X105523809Y-65288152D01*
X105523809Y-65288152D02*
X105619047Y-65335771D01*
X106095238Y-65954819D02*
X106095238Y-64954819D01*
X106523809Y-65954819D02*
X106523809Y-65431009D01*
X106523809Y-65431009D02*
X106476190Y-65335771D01*
X106476190Y-65335771D02*
X106380952Y-65288152D01*
X106380952Y-65288152D02*
X106238095Y-65288152D01*
X106238095Y-65288152D02*
X106142857Y-65335771D01*
X106142857Y-65335771D02*
X106095238Y-65383390D01*
X106857143Y-65288152D02*
X107238095Y-65288152D01*
X107000000Y-64954819D02*
X107000000Y-65811961D01*
X107000000Y-65811961D02*
X107047619Y-65907200D01*
X107047619Y-65907200D02*
X107142857Y-65954819D01*
X107142857Y-65954819D02*
X107238095Y-65954819D01*
X108333334Y-65954819D02*
X108333334Y-65288152D01*
X108333334Y-64954819D02*
X108285715Y-65002438D01*
X108285715Y-65002438D02*
X108333334Y-65050057D01*
X108333334Y-65050057D02*
X108380953Y-65002438D01*
X108380953Y-65002438D02*
X108333334Y-64954819D01*
X108333334Y-64954819D02*
X108333334Y-65050057D01*
X108761905Y-65050057D02*
X108809524Y-65002438D01*
X108809524Y-65002438D02*
X108904762Y-64954819D01*
X108904762Y-64954819D02*
X109142857Y-64954819D01*
X109142857Y-64954819D02*
X109238095Y-65002438D01*
X109238095Y-65002438D02*
X109285714Y-65050057D01*
X109285714Y-65050057D02*
X109333333Y-65145295D01*
X109333333Y-65145295D02*
X109333333Y-65240533D01*
X109333333Y-65240533D02*
X109285714Y-65383390D01*
X109285714Y-65383390D02*
X108714286Y-65954819D01*
X108714286Y-65954819D02*
X109333333Y-65954819D01*
X110190476Y-65907200D02*
X110095238Y-65954819D01*
X110095238Y-65954819D02*
X109904762Y-65954819D01*
X109904762Y-65954819D02*
X109809524Y-65907200D01*
X109809524Y-65907200D02*
X109761905Y-65859580D01*
X109761905Y-65859580D02*
X109714286Y-65764342D01*
X109714286Y-65764342D02*
X109714286Y-65478628D01*
X109714286Y-65478628D02*
X109761905Y-65383390D01*
X109761905Y-65383390D02*
X109809524Y-65335771D01*
X109809524Y-65335771D02*
X109904762Y-65288152D01*
X109904762Y-65288152D02*
X110095238Y-65288152D01*
X110095238Y-65288152D02*
X110190476Y-65335771D01*
X110809524Y-64954819D02*
X110904762Y-64954819D01*
X110904762Y-64954819D02*
X111000000Y-65002438D01*
X111000000Y-65002438D02*
X111047619Y-65050057D01*
X111047619Y-65050057D02*
X111095238Y-65145295D01*
X111095238Y-65145295D02*
X111142857Y-65335771D01*
X111142857Y-65335771D02*
X111142857Y-65573866D01*
X111142857Y-65573866D02*
X111095238Y-65764342D01*
X111095238Y-65764342D02*
X111047619Y-65859580D01*
X111047619Y-65859580D02*
X111000000Y-65907200D01*
X111000000Y-65907200D02*
X110904762Y-65954819D01*
X110904762Y-65954819D02*
X110809524Y-65954819D01*
X110809524Y-65954819D02*
X110714286Y-65907200D01*
X110714286Y-65907200D02*
X110666667Y-65859580D01*
X110666667Y-65859580D02*
X110619048Y-65764342D01*
X110619048Y-65764342D02*
X110571429Y-65573866D01*
X110571429Y-65573866D02*
X110571429Y-65335771D01*
X110571429Y-65335771D02*
X110619048Y-65145295D01*
X110619048Y-65145295D02*
X110666667Y-65050057D01*
X110666667Y-65050057D02*
X110714286Y-65002438D01*
X110714286Y-65002438D02*
X110809524Y-64954819D01*
X71360588Y-54869819D02*
X70789160Y-54869819D01*
X71074874Y-54869819D02*
X71074874Y-53869819D01*
X71074874Y-53869819D02*
X70979636Y-54012676D01*
X70979636Y-54012676D02*
X70884398Y-54107914D01*
X70884398Y-54107914D02*
X70789160Y-54155533D01*
X106322200Y-70710839D02*
X106369819Y-70567982D01*
X106369819Y-70567982D02*
X106369819Y-70329887D01*
X106369819Y-70329887D02*
X106322200Y-70234649D01*
X106322200Y-70234649D02*
X106274580Y-70187030D01*
X106274580Y-70187030D02*
X106179342Y-70139411D01*
X106179342Y-70139411D02*
X106084104Y-70139411D01*
X106084104Y-70139411D02*
X105988866Y-70187030D01*
X105988866Y-70187030D02*
X105941247Y-70234649D01*
X105941247Y-70234649D02*
X105893628Y-70329887D01*
X105893628Y-70329887D02*
X105846009Y-70520363D01*
X105846009Y-70520363D02*
X105798390Y-70615601D01*
X105798390Y-70615601D02*
X105750771Y-70663220D01*
X105750771Y-70663220D02*
X105655533Y-70710839D01*
X105655533Y-70710839D02*
X105560295Y-70710839D01*
X105560295Y-70710839D02*
X105465057Y-70663220D01*
X105465057Y-70663220D02*
X105417438Y-70615601D01*
X105417438Y-70615601D02*
X105369819Y-70520363D01*
X105369819Y-70520363D02*
X105369819Y-70282268D01*
X105369819Y-70282268D02*
X105417438Y-70139411D01*
X106369819Y-69710839D02*
X105369819Y-69710839D01*
X105369819Y-69710839D02*
X105369819Y-69472744D01*
X105369819Y-69472744D02*
X105417438Y-69329887D01*
X105417438Y-69329887D02*
X105512676Y-69234649D01*
X105512676Y-69234649D02*
X105607914Y-69187030D01*
X105607914Y-69187030D02*
X105798390Y-69139411D01*
X105798390Y-69139411D02*
X105941247Y-69139411D01*
X105941247Y-69139411D02*
X106131723Y-69187030D01*
X106131723Y-69187030D02*
X106226961Y-69234649D01*
X106226961Y-69234649D02*
X106322200Y-69329887D01*
X106322200Y-69329887D02*
X106369819Y-69472744D01*
X106369819Y-69472744D02*
X106369819Y-69710839D01*
X106084104Y-68758458D02*
X106084104Y-68282268D01*
X106369819Y-68853696D02*
X105369819Y-68520363D01*
X105369819Y-68520363D02*
X106369819Y-68187030D01*
X111322200Y-70710839D02*
X111369819Y-70567982D01*
X111369819Y-70567982D02*
X111369819Y-70329887D01*
X111369819Y-70329887D02*
X111322200Y-70234649D01*
X111322200Y-70234649D02*
X111274580Y-70187030D01*
X111274580Y-70187030D02*
X111179342Y-70139411D01*
X111179342Y-70139411D02*
X111084104Y-70139411D01*
X111084104Y-70139411D02*
X110988866Y-70187030D01*
X110988866Y-70187030D02*
X110941247Y-70234649D01*
X110941247Y-70234649D02*
X110893628Y-70329887D01*
X110893628Y-70329887D02*
X110846009Y-70520363D01*
X110846009Y-70520363D02*
X110798390Y-70615601D01*
X110798390Y-70615601D02*
X110750771Y-70663220D01*
X110750771Y-70663220D02*
X110655533Y-70710839D01*
X110655533Y-70710839D02*
X110560295Y-70710839D01*
X110560295Y-70710839D02*
X110465057Y-70663220D01*
X110465057Y-70663220D02*
X110417438Y-70615601D01*
X110417438Y-70615601D02*
X110369819Y-70520363D01*
X110369819Y-70520363D02*
X110369819Y-70282268D01*
X110369819Y-70282268D02*
X110417438Y-70139411D01*
X111274580Y-69139411D02*
X111322200Y-69187030D01*
X111322200Y-69187030D02*
X111369819Y-69329887D01*
X111369819Y-69329887D02*
X111369819Y-69425125D01*
X111369819Y-69425125D02*
X111322200Y-69567982D01*
X111322200Y-69567982D02*
X111226961Y-69663220D01*
X111226961Y-69663220D02*
X111131723Y-69710839D01*
X111131723Y-69710839D02*
X110941247Y-69758458D01*
X110941247Y-69758458D02*
X110798390Y-69758458D01*
X110798390Y-69758458D02*
X110607914Y-69710839D01*
X110607914Y-69710839D02*
X110512676Y-69663220D01*
X110512676Y-69663220D02*
X110417438Y-69567982D01*
X110417438Y-69567982D02*
X110369819Y-69425125D01*
X110369819Y-69425125D02*
X110369819Y-69329887D01*
X110369819Y-69329887D02*
X110417438Y-69187030D01*
X110417438Y-69187030D02*
X110465057Y-69139411D01*
X111369819Y-68234649D02*
X111369819Y-68710839D01*
X111369819Y-68710839D02*
X110369819Y-68710839D01*
X120360588Y-63917438D02*
X120265350Y-63869819D01*
X120265350Y-63869819D02*
X120122493Y-63869819D01*
X120122493Y-63869819D02*
X119979636Y-63917438D01*
X119979636Y-63917438D02*
X119884398Y-64012676D01*
X119884398Y-64012676D02*
X119836779Y-64107914D01*
X119836779Y-64107914D02*
X119789160Y-64298390D01*
X119789160Y-64298390D02*
X119789160Y-64441247D01*
X119789160Y-64441247D02*
X119836779Y-64631723D01*
X119836779Y-64631723D02*
X119884398Y-64726961D01*
X119884398Y-64726961D02*
X119979636Y-64822200D01*
X119979636Y-64822200D02*
X120122493Y-64869819D01*
X120122493Y-64869819D02*
X120217731Y-64869819D01*
X120217731Y-64869819D02*
X120360588Y-64822200D01*
X120360588Y-64822200D02*
X120408207Y-64774580D01*
X120408207Y-64774580D02*
X120408207Y-64441247D01*
X120408207Y-64441247D02*
X120217731Y-64441247D01*
X120836779Y-64869819D02*
X120836779Y-63869819D01*
X120836779Y-63869819D02*
X121408207Y-64869819D01*
X121408207Y-64869819D02*
X121408207Y-63869819D01*
X121884398Y-64869819D02*
X121884398Y-63869819D01*
X121884398Y-63869819D02*
X122122493Y-63869819D01*
X122122493Y-63869819D02*
X122265350Y-63917438D01*
X122265350Y-63917438D02*
X122360588Y-64012676D01*
X122360588Y-64012676D02*
X122408207Y-64107914D01*
X122408207Y-64107914D02*
X122455826Y-64298390D01*
X122455826Y-64298390D02*
X122455826Y-64441247D01*
X122455826Y-64441247D02*
X122408207Y-64631723D01*
X122408207Y-64631723D02*
X122360588Y-64726961D01*
X122360588Y-64726961D02*
X122265350Y-64822200D01*
X122265350Y-64822200D02*
X122122493Y-64869819D01*
X122122493Y-64869819D02*
X121884398Y-64869819D01*
X100417438Y-70139411D02*
X100369819Y-70234649D01*
X100369819Y-70234649D02*
X100369819Y-70377506D01*
X100369819Y-70377506D02*
X100417438Y-70520363D01*
X100417438Y-70520363D02*
X100512676Y-70615601D01*
X100512676Y-70615601D02*
X100607914Y-70663220D01*
X100607914Y-70663220D02*
X100798390Y-70710839D01*
X100798390Y-70710839D02*
X100941247Y-70710839D01*
X100941247Y-70710839D02*
X101131723Y-70663220D01*
X101131723Y-70663220D02*
X101226961Y-70615601D01*
X101226961Y-70615601D02*
X101322200Y-70520363D01*
X101322200Y-70520363D02*
X101369819Y-70377506D01*
X101369819Y-70377506D02*
X101369819Y-70282268D01*
X101369819Y-70282268D02*
X101322200Y-70139411D01*
X101322200Y-70139411D02*
X101274580Y-70091792D01*
X101274580Y-70091792D02*
X100941247Y-70091792D01*
X100941247Y-70091792D02*
X100941247Y-70282268D01*
X101369819Y-69663220D02*
X100369819Y-69663220D01*
X100369819Y-69663220D02*
X101369819Y-69091792D01*
X101369819Y-69091792D02*
X100369819Y-69091792D01*
X101369819Y-68615601D02*
X100369819Y-68615601D01*
X100369819Y-68615601D02*
X100369819Y-68377506D01*
X100369819Y-68377506D02*
X100417438Y-68234649D01*
X100417438Y-68234649D02*
X100512676Y-68139411D01*
X100512676Y-68139411D02*
X100607914Y-68091792D01*
X100607914Y-68091792D02*
X100798390Y-68044173D01*
X100798390Y-68044173D02*
X100941247Y-68044173D01*
X100941247Y-68044173D02*
X101131723Y-68091792D01*
X101131723Y-68091792D02*
X101226961Y-68139411D01*
X101226961Y-68139411D02*
X101322200Y-68234649D01*
X101322200Y-68234649D02*
X101369819Y-68377506D01*
X101369819Y-68377506D02*
X101369819Y-68615601D01*
X80369819Y-70758458D02*
X80369819Y-70139411D01*
X80369819Y-70139411D02*
X80750771Y-70472744D01*
X80750771Y-70472744D02*
X80750771Y-70329887D01*
X80750771Y-70329887D02*
X80798390Y-70234649D01*
X80798390Y-70234649D02*
X80846009Y-70187030D01*
X80846009Y-70187030D02*
X80941247Y-70139411D01*
X80941247Y-70139411D02*
X81179342Y-70139411D01*
X81179342Y-70139411D02*
X81274580Y-70187030D01*
X81274580Y-70187030D02*
X81322200Y-70234649D01*
X81322200Y-70234649D02*
X81369819Y-70329887D01*
X81369819Y-70329887D02*
X81369819Y-70615601D01*
X81369819Y-70615601D02*
X81322200Y-70710839D01*
X81322200Y-70710839D02*
X81274580Y-70758458D01*
X81274580Y-69710839D02*
X81322200Y-69663220D01*
X81322200Y-69663220D02*
X81369819Y-69710839D01*
X81369819Y-69710839D02*
X81322200Y-69758458D01*
X81322200Y-69758458D02*
X81274580Y-69710839D01*
X81274580Y-69710839D02*
X81369819Y-69710839D01*
X80369819Y-69329887D02*
X80369819Y-68710840D01*
X80369819Y-68710840D02*
X80750771Y-69044173D01*
X80750771Y-69044173D02*
X80750771Y-68901316D01*
X80750771Y-68901316D02*
X80798390Y-68806078D01*
X80798390Y-68806078D02*
X80846009Y-68758459D01*
X80846009Y-68758459D02*
X80941247Y-68710840D01*
X80941247Y-68710840D02*
X81179342Y-68710840D01*
X81179342Y-68710840D02*
X81274580Y-68758459D01*
X81274580Y-68758459D02*
X81322200Y-68806078D01*
X81322200Y-68806078D02*
X81369819Y-68901316D01*
X81369819Y-68901316D02*
X81369819Y-69187030D01*
X81369819Y-69187030D02*
X81322200Y-69282268D01*
X81322200Y-69282268D02*
X81274580Y-69329887D01*
X80369819Y-68425125D02*
X81369819Y-68091792D01*
X81369819Y-68091792D02*
X80369819Y-67758459D01*
X86322200Y-70710839D02*
X86369819Y-70567982D01*
X86369819Y-70567982D02*
X86369819Y-70329887D01*
X86369819Y-70329887D02*
X86322200Y-70234649D01*
X86322200Y-70234649D02*
X86274580Y-70187030D01*
X86274580Y-70187030D02*
X86179342Y-70139411D01*
X86179342Y-70139411D02*
X86084104Y-70139411D01*
X86084104Y-70139411D02*
X85988866Y-70187030D01*
X85988866Y-70187030D02*
X85941247Y-70234649D01*
X85941247Y-70234649D02*
X85893628Y-70329887D01*
X85893628Y-70329887D02*
X85846009Y-70520363D01*
X85846009Y-70520363D02*
X85798390Y-70615601D01*
X85798390Y-70615601D02*
X85750771Y-70663220D01*
X85750771Y-70663220D02*
X85655533Y-70710839D01*
X85655533Y-70710839D02*
X85560295Y-70710839D01*
X85560295Y-70710839D02*
X85465057Y-70663220D01*
X85465057Y-70663220D02*
X85417438Y-70615601D01*
X85417438Y-70615601D02*
X85369819Y-70520363D01*
X85369819Y-70520363D02*
X85369819Y-70282268D01*
X85369819Y-70282268D02*
X85417438Y-70139411D01*
X86369819Y-69710839D02*
X85369819Y-69710839D01*
X85369819Y-69710839D02*
X85369819Y-69472744D01*
X85369819Y-69472744D02*
X85417438Y-69329887D01*
X85417438Y-69329887D02*
X85512676Y-69234649D01*
X85512676Y-69234649D02*
X85607914Y-69187030D01*
X85607914Y-69187030D02*
X85798390Y-69139411D01*
X85798390Y-69139411D02*
X85941247Y-69139411D01*
X85941247Y-69139411D02*
X86131723Y-69187030D01*
X86131723Y-69187030D02*
X86226961Y-69234649D01*
X86226961Y-69234649D02*
X86322200Y-69329887D01*
X86322200Y-69329887D02*
X86369819Y-69472744D01*
X86369819Y-69472744D02*
X86369819Y-69710839D01*
X86084104Y-68758458D02*
X86084104Y-68282268D01*
X86369819Y-68853696D02*
X85369819Y-68520363D01*
X85369819Y-68520363D02*
X86369819Y-68187030D01*
X95417438Y-70139411D02*
X95369819Y-70234649D01*
X95369819Y-70234649D02*
X95369819Y-70377506D01*
X95369819Y-70377506D02*
X95417438Y-70520363D01*
X95417438Y-70520363D02*
X95512676Y-70615601D01*
X95512676Y-70615601D02*
X95607914Y-70663220D01*
X95607914Y-70663220D02*
X95798390Y-70710839D01*
X95798390Y-70710839D02*
X95941247Y-70710839D01*
X95941247Y-70710839D02*
X96131723Y-70663220D01*
X96131723Y-70663220D02*
X96226961Y-70615601D01*
X96226961Y-70615601D02*
X96322200Y-70520363D01*
X96322200Y-70520363D02*
X96369819Y-70377506D01*
X96369819Y-70377506D02*
X96369819Y-70282268D01*
X96369819Y-70282268D02*
X96322200Y-70139411D01*
X96322200Y-70139411D02*
X96274580Y-70091792D01*
X96274580Y-70091792D02*
X95941247Y-70091792D01*
X95941247Y-70091792D02*
X95941247Y-70282268D01*
X96369819Y-69663220D02*
X95369819Y-69663220D01*
X95369819Y-69663220D02*
X96369819Y-69091792D01*
X96369819Y-69091792D02*
X95369819Y-69091792D01*
X96369819Y-68615601D02*
X95369819Y-68615601D01*
X95369819Y-68615601D02*
X95369819Y-68377506D01*
X95369819Y-68377506D02*
X95417438Y-68234649D01*
X95417438Y-68234649D02*
X95512676Y-68139411D01*
X95512676Y-68139411D02*
X95607914Y-68091792D01*
X95607914Y-68091792D02*
X95798390Y-68044173D01*
X95798390Y-68044173D02*
X95941247Y-68044173D01*
X95941247Y-68044173D02*
X96131723Y-68091792D01*
X96131723Y-68091792D02*
X96226961Y-68139411D01*
X96226961Y-68139411D02*
X96322200Y-68234649D01*
X96322200Y-68234649D02*
X96369819Y-68377506D01*
X96369819Y-68377506D02*
X96369819Y-68615601D01*
X91322200Y-70710839D02*
X91369819Y-70567982D01*
X91369819Y-70567982D02*
X91369819Y-70329887D01*
X91369819Y-70329887D02*
X91322200Y-70234649D01*
X91322200Y-70234649D02*
X91274580Y-70187030D01*
X91274580Y-70187030D02*
X91179342Y-70139411D01*
X91179342Y-70139411D02*
X91084104Y-70139411D01*
X91084104Y-70139411D02*
X90988866Y-70187030D01*
X90988866Y-70187030D02*
X90941247Y-70234649D01*
X90941247Y-70234649D02*
X90893628Y-70329887D01*
X90893628Y-70329887D02*
X90846009Y-70520363D01*
X90846009Y-70520363D02*
X90798390Y-70615601D01*
X90798390Y-70615601D02*
X90750771Y-70663220D01*
X90750771Y-70663220D02*
X90655533Y-70710839D01*
X90655533Y-70710839D02*
X90560295Y-70710839D01*
X90560295Y-70710839D02*
X90465057Y-70663220D01*
X90465057Y-70663220D02*
X90417438Y-70615601D01*
X90417438Y-70615601D02*
X90369819Y-70520363D01*
X90369819Y-70520363D02*
X90369819Y-70282268D01*
X90369819Y-70282268D02*
X90417438Y-70139411D01*
X91274580Y-69139411D02*
X91322200Y-69187030D01*
X91322200Y-69187030D02*
X91369819Y-69329887D01*
X91369819Y-69329887D02*
X91369819Y-69425125D01*
X91369819Y-69425125D02*
X91322200Y-69567982D01*
X91322200Y-69567982D02*
X91226961Y-69663220D01*
X91226961Y-69663220D02*
X91131723Y-69710839D01*
X91131723Y-69710839D02*
X90941247Y-69758458D01*
X90941247Y-69758458D02*
X90798390Y-69758458D01*
X90798390Y-69758458D02*
X90607914Y-69710839D01*
X90607914Y-69710839D02*
X90512676Y-69663220D01*
X90512676Y-69663220D02*
X90417438Y-69567982D01*
X90417438Y-69567982D02*
X90369819Y-69425125D01*
X90369819Y-69425125D02*
X90369819Y-69329887D01*
X90369819Y-69329887D02*
X90417438Y-69187030D01*
X90417438Y-69187030D02*
X90465057Y-69139411D01*
X91369819Y-68234649D02*
X91369819Y-68710839D01*
X91369819Y-68710839D02*
X90369819Y-68710839D01*
X115369819Y-70758458D02*
X115369819Y-70139411D01*
X115369819Y-70139411D02*
X115750771Y-70472744D01*
X115750771Y-70472744D02*
X115750771Y-70329887D01*
X115750771Y-70329887D02*
X115798390Y-70234649D01*
X115798390Y-70234649D02*
X115846009Y-70187030D01*
X115846009Y-70187030D02*
X115941247Y-70139411D01*
X115941247Y-70139411D02*
X116179342Y-70139411D01*
X116179342Y-70139411D02*
X116274580Y-70187030D01*
X116274580Y-70187030D02*
X116322200Y-70234649D01*
X116322200Y-70234649D02*
X116369819Y-70329887D01*
X116369819Y-70329887D02*
X116369819Y-70615601D01*
X116369819Y-70615601D02*
X116322200Y-70710839D01*
X116322200Y-70710839D02*
X116274580Y-70758458D01*
X116274580Y-69710839D02*
X116322200Y-69663220D01*
X116322200Y-69663220D02*
X116369819Y-69710839D01*
X116369819Y-69710839D02*
X116322200Y-69758458D01*
X116322200Y-69758458D02*
X116274580Y-69710839D01*
X116274580Y-69710839D02*
X116369819Y-69710839D01*
X115369819Y-69329887D02*
X115369819Y-68710840D01*
X115369819Y-68710840D02*
X115750771Y-69044173D01*
X115750771Y-69044173D02*
X115750771Y-68901316D01*
X115750771Y-68901316D02*
X115798390Y-68806078D01*
X115798390Y-68806078D02*
X115846009Y-68758459D01*
X115846009Y-68758459D02*
X115941247Y-68710840D01*
X115941247Y-68710840D02*
X116179342Y-68710840D01*
X116179342Y-68710840D02*
X116274580Y-68758459D01*
X116274580Y-68758459D02*
X116322200Y-68806078D01*
X116322200Y-68806078D02*
X116369819Y-68901316D01*
X116369819Y-68901316D02*
X116369819Y-69187030D01*
X116369819Y-69187030D02*
X116322200Y-69282268D01*
X116322200Y-69282268D02*
X116274580Y-69329887D01*
X115369819Y-68425125D02*
X116369819Y-68091792D01*
X116369819Y-68091792D02*
X115369819Y-67758459D01*
X121312969Y-58869819D02*
X120836779Y-58869819D01*
X120836779Y-58869819D02*
X120789160Y-59346009D01*
X120789160Y-59346009D02*
X120836779Y-59298390D01*
X120836779Y-59298390D02*
X120932017Y-59250771D01*
X120932017Y-59250771D02*
X121170112Y-59250771D01*
X121170112Y-59250771D02*
X121265350Y-59298390D01*
X121265350Y-59298390D02*
X121312969Y-59346009D01*
X121312969Y-59346009D02*
X121360588Y-59441247D01*
X121360588Y-59441247D02*
X121360588Y-59679342D01*
X121360588Y-59679342D02*
X121312969Y-59774580D01*
X121312969Y-59774580D02*
X121265350Y-59822200D01*
X121265350Y-59822200D02*
X121170112Y-59869819D01*
X121170112Y-59869819D02*
X120932017Y-59869819D01*
X120932017Y-59869819D02*
X120836779Y-59822200D01*
X120836779Y-59822200D02*
X120789160Y-59774580D01*
X121646303Y-58869819D02*
X121979636Y-59869819D01*
X121979636Y-59869819D02*
X122312969Y-58869819D01*
X75369819Y-70187030D02*
X75369819Y-70663220D01*
X75369819Y-70663220D02*
X75846009Y-70710839D01*
X75846009Y-70710839D02*
X75798390Y-70663220D01*
X75798390Y-70663220D02*
X75750771Y-70567982D01*
X75750771Y-70567982D02*
X75750771Y-70329887D01*
X75750771Y-70329887D02*
X75798390Y-70234649D01*
X75798390Y-70234649D02*
X75846009Y-70187030D01*
X75846009Y-70187030D02*
X75941247Y-70139411D01*
X75941247Y-70139411D02*
X76179342Y-70139411D01*
X76179342Y-70139411D02*
X76274580Y-70187030D01*
X76274580Y-70187030D02*
X76322200Y-70234649D01*
X76322200Y-70234649D02*
X76369819Y-70329887D01*
X76369819Y-70329887D02*
X76369819Y-70567982D01*
X76369819Y-70567982D02*
X76322200Y-70663220D01*
X76322200Y-70663220D02*
X76274580Y-70710839D01*
X75369819Y-69853696D02*
X76369819Y-69520363D01*
X76369819Y-69520363D02*
X75369819Y-69187030D01*
X117454819Y-62833332D02*
X116454819Y-62833332D01*
X116454819Y-62833332D02*
X116454819Y-62452380D01*
X116454819Y-62452380D02*
X116502438Y-62357142D01*
X116502438Y-62357142D02*
X116550057Y-62309523D01*
X116550057Y-62309523D02*
X116645295Y-62261904D01*
X116645295Y-62261904D02*
X116788152Y-62261904D01*
X116788152Y-62261904D02*
X116883390Y-62309523D01*
X116883390Y-62309523D02*
X116931009Y-62357142D01*
X116931009Y-62357142D02*
X116978628Y-62452380D01*
X116978628Y-62452380D02*
X116978628Y-62833332D01*
X116454819Y-61928570D02*
X117454819Y-61690475D01*
X117454819Y-61690475D02*
X116740533Y-61499999D01*
X116740533Y-61499999D02*
X117454819Y-61309523D01*
X117454819Y-61309523D02*
X116454819Y-61071428D01*
X117454819Y-60119047D02*
X116978628Y-60452380D01*
X117454819Y-60690475D02*
X116454819Y-60690475D01*
X116454819Y-60690475D02*
X116454819Y-60309523D01*
X116454819Y-60309523D02*
X116502438Y-60214285D01*
X116502438Y-60214285D02*
X116550057Y-60166666D01*
X116550057Y-60166666D02*
X116645295Y-60119047D01*
X116645295Y-60119047D02*
X116788152Y-60119047D01*
X116788152Y-60119047D02*
X116883390Y-60166666D01*
X116883390Y-60166666D02*
X116931009Y-60214285D01*
X116931009Y-60214285D02*
X116978628Y-60309523D01*
X116978628Y-60309523D02*
X116978628Y-60690475D01*
X83761904Y-65907200D02*
X83904761Y-65954819D01*
X83904761Y-65954819D02*
X84142856Y-65954819D01*
X84142856Y-65954819D02*
X84238094Y-65907200D01*
X84238094Y-65907200D02*
X84285713Y-65859580D01*
X84285713Y-65859580D02*
X84333332Y-65764342D01*
X84333332Y-65764342D02*
X84333332Y-65669104D01*
X84333332Y-65669104D02*
X84285713Y-65573866D01*
X84285713Y-65573866D02*
X84238094Y-65526247D01*
X84238094Y-65526247D02*
X84142856Y-65478628D01*
X84142856Y-65478628D02*
X83952380Y-65431009D01*
X83952380Y-65431009D02*
X83857142Y-65383390D01*
X83857142Y-65383390D02*
X83809523Y-65335771D01*
X83809523Y-65335771D02*
X83761904Y-65240533D01*
X83761904Y-65240533D02*
X83761904Y-65145295D01*
X83761904Y-65145295D02*
X83809523Y-65050057D01*
X83809523Y-65050057D02*
X83857142Y-65002438D01*
X83857142Y-65002438D02*
X83952380Y-64954819D01*
X83952380Y-64954819D02*
X84190475Y-64954819D01*
X84190475Y-64954819D02*
X84333332Y-65002438D01*
X85142856Y-65907200D02*
X85047618Y-65954819D01*
X85047618Y-65954819D02*
X84857142Y-65954819D01*
X84857142Y-65954819D02*
X84761904Y-65907200D01*
X84761904Y-65907200D02*
X84714285Y-65811961D01*
X84714285Y-65811961D02*
X84714285Y-65431009D01*
X84714285Y-65431009D02*
X84761904Y-65335771D01*
X84761904Y-65335771D02*
X84857142Y-65288152D01*
X84857142Y-65288152D02*
X85047618Y-65288152D01*
X85047618Y-65288152D02*
X85142856Y-65335771D01*
X85142856Y-65335771D02*
X85190475Y-65431009D01*
X85190475Y-65431009D02*
X85190475Y-65526247D01*
X85190475Y-65526247D02*
X84714285Y-65621485D01*
X85619047Y-65288152D02*
X85619047Y-65954819D01*
X85619047Y-65383390D02*
X85666666Y-65335771D01*
X85666666Y-65335771D02*
X85761904Y-65288152D01*
X85761904Y-65288152D02*
X85904761Y-65288152D01*
X85904761Y-65288152D02*
X85999999Y-65335771D01*
X85999999Y-65335771D02*
X86047618Y-65431009D01*
X86047618Y-65431009D02*
X86047618Y-65954819D01*
X86476190Y-65907200D02*
X86571428Y-65954819D01*
X86571428Y-65954819D02*
X86761904Y-65954819D01*
X86761904Y-65954819D02*
X86857142Y-65907200D01*
X86857142Y-65907200D02*
X86904761Y-65811961D01*
X86904761Y-65811961D02*
X86904761Y-65764342D01*
X86904761Y-65764342D02*
X86857142Y-65669104D01*
X86857142Y-65669104D02*
X86761904Y-65621485D01*
X86761904Y-65621485D02*
X86619047Y-65621485D01*
X86619047Y-65621485D02*
X86523809Y-65573866D01*
X86523809Y-65573866D02*
X86476190Y-65478628D01*
X86476190Y-65478628D02*
X86476190Y-65431009D01*
X86476190Y-65431009D02*
X86523809Y-65335771D01*
X86523809Y-65335771D02*
X86619047Y-65288152D01*
X86619047Y-65288152D02*
X86761904Y-65288152D01*
X86761904Y-65288152D02*
X86857142Y-65335771D01*
X87476190Y-65954819D02*
X87380952Y-65907200D01*
X87380952Y-65907200D02*
X87333333Y-65859580D01*
X87333333Y-65859580D02*
X87285714Y-65764342D01*
X87285714Y-65764342D02*
X87285714Y-65478628D01*
X87285714Y-65478628D02*
X87333333Y-65383390D01*
X87333333Y-65383390D02*
X87380952Y-65335771D01*
X87380952Y-65335771D02*
X87476190Y-65288152D01*
X87476190Y-65288152D02*
X87619047Y-65288152D01*
X87619047Y-65288152D02*
X87714285Y-65335771D01*
X87714285Y-65335771D02*
X87761904Y-65383390D01*
X87761904Y-65383390D02*
X87809523Y-65478628D01*
X87809523Y-65478628D02*
X87809523Y-65764342D01*
X87809523Y-65764342D02*
X87761904Y-65859580D01*
X87761904Y-65859580D02*
X87714285Y-65907200D01*
X87714285Y-65907200D02*
X87619047Y-65954819D01*
X87619047Y-65954819D02*
X87476190Y-65954819D01*
X88238095Y-65954819D02*
X88238095Y-65288152D01*
X88238095Y-65478628D02*
X88285714Y-65383390D01*
X88285714Y-65383390D02*
X88333333Y-65335771D01*
X88333333Y-65335771D02*
X88428571Y-65288152D01*
X88428571Y-65288152D02*
X88523809Y-65288152D01*
X88809524Y-65907200D02*
X88904762Y-65954819D01*
X88904762Y-65954819D02*
X89095238Y-65954819D01*
X89095238Y-65954819D02*
X89190476Y-65907200D01*
X89190476Y-65907200D02*
X89238095Y-65811961D01*
X89238095Y-65811961D02*
X89238095Y-65764342D01*
X89238095Y-65764342D02*
X89190476Y-65669104D01*
X89190476Y-65669104D02*
X89095238Y-65621485D01*
X89095238Y-65621485D02*
X88952381Y-65621485D01*
X88952381Y-65621485D02*
X88857143Y-65573866D01*
X88857143Y-65573866D02*
X88809524Y-65478628D01*
X88809524Y-65478628D02*
X88809524Y-65431009D01*
X88809524Y-65431009D02*
X88857143Y-65335771D01*
X88857143Y-65335771D02*
X88952381Y-65288152D01*
X88952381Y-65288152D02*
X89095238Y-65288152D01*
X89095238Y-65288152D02*
X89190476Y-65335771D01*
D11*
%TO.C,PWR*%
X136110000Y-68650000D02*
X136110000Y-56270000D01*
X136110000Y-66000000D02*
X136110000Y-64000000D01*
X136110000Y-64000000D02*
X134610000Y-64250000D01*
X136110000Y-60920000D02*
X136110000Y-58920000D01*
X136110000Y-58920000D02*
X134610000Y-59170000D01*
X136110000Y-56270000D02*
X123890000Y-56270000D01*
X134610000Y-68650000D02*
X132810000Y-68650000D01*
X134610000Y-65750000D02*
X136110000Y-66000000D01*
X134610000Y-64250000D02*
X134610000Y-65750000D01*
X134610000Y-60670000D02*
X136110000Y-60920000D01*
X134610000Y-59170000D02*
X134610000Y-60670000D01*
X134610000Y-56270000D02*
X134610000Y-68650000D01*
X132810000Y-68650000D02*
X132810000Y-56270000D01*
X132810000Y-56270000D02*
X134610000Y-56270000D01*
X123890000Y-68650000D02*
X136110000Y-68650000D01*
X123890000Y-56270000D02*
X123890000Y-68650000D01*
X123690000Y-65000000D02*
X123090000Y-65300000D01*
X123090000Y-65300000D02*
X123090000Y-64700000D01*
X123090000Y-64700000D02*
X123690000Y-65000000D01*
%TO.C,Sensors*%
X72850000Y-71890000D02*
X72850000Y-84110000D01*
X72850000Y-80810000D02*
X120790000Y-80810000D01*
X72850000Y-82610000D02*
X72850000Y-80810000D01*
X72850000Y-84110000D02*
X120790000Y-84110000D01*
X75500000Y-84110000D02*
X77500000Y-84110000D01*
X75750000Y-82610000D02*
X75500000Y-84110000D01*
X76200000Y-71090000D02*
X76800000Y-71090000D01*
X76500000Y-71690000D02*
X76200000Y-71090000D01*
X76800000Y-71090000D02*
X76500000Y-71690000D01*
X77250000Y-82610000D02*
X75750000Y-82610000D01*
X77500000Y-84110000D02*
X77250000Y-82610000D01*
X80580000Y-84110000D02*
X82580000Y-84110000D01*
X80830000Y-82610000D02*
X80580000Y-84110000D01*
X82330000Y-82610000D02*
X80830000Y-82610000D01*
X82580000Y-84110000D02*
X82330000Y-82610000D01*
X85660000Y-84110000D02*
X87660000Y-84110000D01*
X85910000Y-82610000D02*
X85660000Y-84110000D01*
X87410000Y-82610000D02*
X85910000Y-82610000D01*
X87660000Y-84110000D02*
X87410000Y-82610000D01*
X90740000Y-84110000D02*
X92740000Y-84110000D01*
X90990000Y-82610000D02*
X90740000Y-84110000D01*
X92490000Y-82610000D02*
X90990000Y-82610000D01*
X92740000Y-84110000D02*
X92490000Y-82610000D01*
X95820000Y-84110000D02*
X97820000Y-84110000D01*
X96070000Y-82610000D02*
X95820000Y-84110000D01*
X97570000Y-82610000D02*
X96070000Y-82610000D01*
X97820000Y-84110000D02*
X97570000Y-82610000D01*
X100900000Y-84110000D02*
X102900000Y-84110000D01*
X101150000Y-82610000D02*
X100900000Y-84110000D01*
X102650000Y-82610000D02*
X101150000Y-82610000D01*
X102900000Y-84110000D02*
X102650000Y-82610000D01*
X105980000Y-84110000D02*
X107980000Y-84110000D01*
X106230000Y-82610000D02*
X105980000Y-84110000D01*
X107730000Y-82610000D02*
X106230000Y-82610000D01*
X107980000Y-84110000D02*
X107730000Y-82610000D01*
X111060000Y-84110000D02*
X113060000Y-84110000D01*
X111310000Y-82610000D02*
X111060000Y-84110000D01*
X112810000Y-82610000D02*
X111310000Y-82610000D01*
X113060000Y-84110000D02*
X112810000Y-82610000D01*
X116140000Y-84110000D02*
X118140000Y-84110000D01*
X116390000Y-82610000D02*
X116140000Y-84110000D01*
X117890000Y-82610000D02*
X116390000Y-82610000D01*
X118140000Y-84110000D02*
X117890000Y-82610000D01*
X120790000Y-71890000D02*
X72850000Y-71890000D01*
X120790000Y-80810000D02*
X120790000Y-82610000D01*
X120790000Y-82610000D02*
X72850000Y-82610000D01*
X120790000Y-84110000D02*
X120790000Y-71890000D01*
%TO.C,REF\u002A\u002A*%
X71540000Y-48900000D02*
X122460000Y-48900000D01*
X71540000Y-51500000D02*
X71540000Y-48900000D01*
X71540000Y-54100000D02*
X71540000Y-52770000D01*
X72870000Y-54100000D02*
X71540000Y-54100000D01*
X74140000Y-51500000D02*
X71540000Y-51500000D01*
X74140000Y-54100000D02*
X74140000Y-51500000D01*
X74140000Y-54100000D02*
X122460000Y-54100000D01*
X122460000Y-54100000D02*
X122460000Y-48900000D01*
%TD*%
M02*
