%TF.GenerationSoftware,KiCad,Pcbnew,8.0.6-8.0.6-0~ubuntu24.04.1*%
%TF.CreationDate,2024-10-21T14:05:21+02:00*%
%TF.ProjectId,Electronics,456c6563-7472-46f6-9e69-63732e6b6963,rev?*%
%TF.SameCoordinates,Original*%
%TF.FileFunction,Copper,L2,Bot*%
%TF.FilePolarity,Positive*%
%FSLAX46Y46*%
G04 Gerber Fmt 4.6, Leading zero omitted, Abs format (unit mm)*
G04 Created by KiCad (PCBNEW 8.0.6-8.0.6-0~ubuntu24.04.1) date 2024-10-21 14:05:21*
%MOMM*%
%LPD*%
G01*
G04 APERTURE LIST*
G04 Aperture macros list*
%AMRoundRect*
0 Rectangle with rounded corners*
0 $1 Rounding radius*
0 $2 $3 $4 $5 $6 $7 $8 $9 X,Y pos of 4 corners*
0 Add a 4 corners polygon primitive as box body*
4,1,4,$2,$3,$4,$5,$6,$7,$8,$9,$2,$3,0*
0 Add four circle primitives for the rounded corners*
1,1,$1+$1,$2,$3*
1,1,$1+$1,$4,$5*
1,1,$1+$1,$6,$7*
1,1,$1+$1,$8,$9*
0 Add four rect primitives between the rounded corners*
20,1,$1+$1,$2,$3,$4,$5,0*
20,1,$1+$1,$4,$5,$6,$7,0*
20,1,$1+$1,$6,$7,$8,$9,0*
20,1,$1+$1,$8,$9,$2,$3,0*%
G04 Aperture macros list end*
%TA.AperFunction,ComponentPad*%
%ADD10O,3.600000X2.080000*%
%TD*%
%TA.AperFunction,ComponentPad*%
%ADD11RoundRect,0.249999X1.550001X-0.790001X1.550001X0.790001X-1.550001X0.790001X-1.550001X-0.790001X0*%
%TD*%
%TA.AperFunction,ComponentPad*%
%ADD12C,5.000000*%
%TD*%
%TA.AperFunction,ComponentPad*%
%ADD13RoundRect,0.249999X-0.790001X-1.550001X0.790001X-1.550001X0.790001X1.550001X-0.790001X1.550001X0*%
%TD*%
%TA.AperFunction,ComponentPad*%
%ADD14O,2.080000X3.600000*%
%TD*%
%TA.AperFunction,ComponentPad*%
%ADD15R,1.700000X1.700000*%
%TD*%
%TA.AperFunction,ComponentPad*%
%ADD16O,1.700000X1.700000*%
%TD*%
%TA.AperFunction,ViaPad*%
%ADD17C,0.800000*%
%TD*%
%TA.AperFunction,Conductor*%
%ADD18C,0.500000*%
%TD*%
G04 APERTURE END LIST*
D10*
%TO.P,PWR,2*%
%TO.N,N/C*%
X126000000Y-59920000D03*
D11*
%TO.P,PWR,1*%
X126000000Y-65000000D03*
%TD*%
D12*
%TO.P,REF\u002A\u002A,1*%
%TO.N,N/C*%
X68000000Y-74500000D03*
%TD*%
%TO.P,REF\u002A\u002A,1*%
%TO.N,N/C*%
X126000000Y-74500000D03*
%TD*%
D13*
%TO.P,Sensors,1*%
%TO.N,N/C*%
X76500000Y-74000000D03*
D14*
%TO.P,Sensors,2*%
X81580000Y-74000000D03*
%TO.P,Sensors,3*%
X86660000Y-74000000D03*
%TO.P,Sensors,4*%
X91740000Y-74000000D03*
%TO.P,Sensors,5*%
X96820000Y-74000000D03*
%TO.P,Sensors,6*%
X101900000Y-74000000D03*
%TO.P,Sensors,7*%
X106980000Y-74000000D03*
%TO.P,Sensors,8*%
X112060000Y-74000000D03*
%TO.P,Sensors,9*%
X117140000Y-74000000D03*
%TD*%
D12*
%TO.P,REF\u002A\u002A,1*%
%TO.N,N/C*%
X68000000Y-51500000D03*
%TD*%
%TO.P,REF\u002A\u002A,1*%
%TO.N,N/C*%
X126000000Y-51500000D03*
%TD*%
D15*
%TO.P,REF\u002A\u002A,1*%
%TO.N,N/C*%
X72870000Y-52770000D03*
D16*
%TO.P,REF\u002A\u002A,2*%
X72870000Y-50230000D03*
%TO.P,REF\u002A\u002A,3*%
X75410000Y-52770000D03*
%TO.P,REF\u002A\u002A,4*%
X75410000Y-50230000D03*
%TO.P,REF\u002A\u002A,5*%
X77950000Y-52770000D03*
%TO.P,REF\u002A\u002A,6*%
X77950000Y-50230000D03*
%TO.P,REF\u002A\u002A,7*%
X80490000Y-52770000D03*
%TO.P,REF\u002A\u002A,8*%
X80490000Y-50230000D03*
%TO.P,REF\u002A\u002A,9*%
X83030000Y-52770000D03*
%TO.P,REF\u002A\u002A,10*%
X83030000Y-50230000D03*
%TO.P,REF\u002A\u002A,11*%
X85570000Y-52770000D03*
%TO.P,REF\u002A\u002A,12*%
X85570000Y-50230000D03*
%TO.P,REF\u002A\u002A,13*%
X88110000Y-52770000D03*
%TO.P,REF\u002A\u002A,14*%
X88110000Y-50230000D03*
%TO.P,REF\u002A\u002A,15*%
X90650000Y-52770000D03*
%TO.P,REF\u002A\u002A,16*%
X90650000Y-50230000D03*
%TO.P,REF\u002A\u002A,17*%
X93190000Y-52770000D03*
%TO.P,REF\u002A\u002A,18*%
X93190000Y-50230000D03*
%TO.P,REF\u002A\u002A,19*%
X95730000Y-52770000D03*
%TO.P,REF\u002A\u002A,20*%
X95730000Y-50230000D03*
%TO.P,REF\u002A\u002A,21*%
X98270000Y-52770000D03*
%TO.P,REF\u002A\u002A,22*%
X98270000Y-50230000D03*
%TO.P,REF\u002A\u002A,23*%
X100810000Y-52770000D03*
%TO.P,REF\u002A\u002A,24*%
X100810000Y-50230000D03*
%TO.P,REF\u002A\u002A,25*%
X103350000Y-52770000D03*
%TO.P,REF\u002A\u002A,26*%
X103350000Y-50230000D03*
%TO.P,REF\u002A\u002A,27*%
X105890000Y-52770000D03*
%TO.P,REF\u002A\u002A,28*%
X105890000Y-50230000D03*
%TO.P,REF\u002A\u002A,29*%
X108430000Y-52770000D03*
%TO.P,REF\u002A\u002A,30*%
X108430000Y-50230000D03*
%TO.P,REF\u002A\u002A,31*%
X110970000Y-52770000D03*
%TO.P,REF\u002A\u002A,32*%
X110970000Y-50230000D03*
%TO.P,REF\u002A\u002A,33*%
X113510000Y-52770000D03*
%TO.P,REF\u002A\u002A,34*%
X113510000Y-50230000D03*
%TO.P,REF\u002A\u002A,35*%
X116050000Y-52770000D03*
%TO.P,REF\u002A\u002A,36*%
X116050000Y-50230000D03*
%TO.P,REF\u002A\u002A,37*%
X118590000Y-52770000D03*
%TO.P,REF\u002A\u002A,38*%
X118590000Y-50230000D03*
%TO.P,REF\u002A\u002A,39*%
X121130000Y-52770000D03*
%TO.P,REF\u002A\u002A,40*%
X121130000Y-50230000D03*
%TD*%
D17*
%TO.N,*%
X81580000Y-67080000D03*
%TD*%
D18*
%TO.N,*%
X117140000Y-74000000D02*
X117140000Y-69540000D01*
X71770000Y-50230000D02*
X71250000Y-50750000D01*
X71250000Y-50750000D02*
X71250000Y-53600000D01*
X126000000Y-59920000D02*
X76500000Y-59920000D01*
X71250000Y-54670000D02*
X71250000Y-53600000D01*
X76500000Y-59920000D02*
X71250000Y-54670000D01*
X76500000Y-60750000D02*
X76500000Y-74000000D01*
X76500000Y-59920000D02*
X76500000Y-60750000D01*
X117140000Y-69540000D02*
X114680000Y-67080000D01*
X72870000Y-50230000D02*
X71770000Y-50230000D01*
X114680000Y-67080000D02*
X81580000Y-67080000D01*
%TD*%
M02*
