M48
; DRILL file {KiCad 8.0.6-8.0.6-0~ubuntu24.04.1} date 2024-10-21T14:05:24+0200
; FORMAT={-:-/ absolute / inch / decimal}
; #@! TF.CreationDate,2024-10-21T14:05:24+02:00
; #@! TF.GenerationSoftware,Kicad,Pcbnew,8.0.6-8.0.6-0~ubuntu24.04.1
; #@! TF.FileFunction,Plated,1,2,PTH
FMAT,2
INCH
; #@! TA.AperFunction,Plated,PTH,ViaDrill
T1C0.0157
; #@! TA.AperFunction,Plated,PTH,ComponentDrill
T2C0.0394
; #@! TA.AperFunction,Plated,PTH,ComponentDrill
T3C0.0551
; #@! TA.AperFunction,Plated,PTH,ComponentDrill
T4C0.0984
%
G90
G05
T1
X3.2118Y-2.6409
T2
X2.8689Y-1.9776
X2.8689Y-2.0776
X2.9689Y-1.9776
X2.9689Y-2.0776
X3.0689Y-1.9776
X3.0689Y-2.0776
X3.1689Y-1.9776
X3.1689Y-2.0776
X3.2689Y-1.9776
X3.2689Y-2.0776
X3.3689Y-1.9776
X3.3689Y-2.0776
X3.4689Y-1.9776
X3.4689Y-2.0776
X3.5689Y-1.9776
X3.5689Y-2.0776
X3.6689Y-1.9776
X3.6689Y-2.0776
X3.7689Y-1.9776
X3.7689Y-2.0776
X3.8689Y-1.9776
X3.8689Y-2.0776
X3.9689Y-1.9776
X3.9689Y-2.0776
X4.0689Y-1.9776
X4.0689Y-2.0776
X4.1689Y-1.9776
X4.1689Y-2.0776
X4.2689Y-1.9776
X4.2689Y-2.0776
X4.3689Y-1.9776
X4.3689Y-2.0776
X4.4689Y-1.9776
X4.4689Y-2.0776
X4.5689Y-1.9776
X4.5689Y-2.0776
X4.6689Y-1.9776
X4.6689Y-2.0776
X4.7689Y-1.9776
X4.7689Y-2.0776
T3
X3.0118Y-2.9134
X3.2118Y-2.9134
X3.4118Y-2.9134
X3.6118Y-2.9134
X3.8118Y-2.9134
X4.0118Y-2.9134
X4.2118Y-2.9134
X4.4118Y-2.9134
X4.6118Y-2.9134
X4.9606Y-2.3591
X4.9606Y-2.5591
T4
X2.6772Y-2.0276
X2.6772Y-2.9331
X4.9606Y-2.0276
X4.9606Y-2.9331
M30
