<?xml version="1.0" standalone="no"?>
 <!DOCTYPE svg PUBLIC "-//W3C//DTD SVG 1.1//EN" 
 "http://www.w3.org/Graphics/SVG/1.1/DTD/svg11.dtd"> 
<svg
  xmlns:svg="http://www.w3.org/2000/svg"
  xmlns="http://www.w3.org/2000/svg"
  xmlns:xlink="http://www.w3.org/1999/xlink"
  version="1.1"
  width="297.0022mm" height="210.0072mm" viewBox="0.0000 0.0000 297.0022 210.0072">
<title>SVG Image created as Electronics-F_Silkscreen.svg date 2024/11/06 13:36:27 </title>
  <desc>Image generated by PCBNEW </desc>
<g style="fill:#000000; fill-opacity:1.0000;stroke:#000000; stroke-opacity:1.0000;
stroke-linecap:round; stroke-linejoin:round;"
 transform="translate(0 0) scale(1 1)">
</g>
<g style="fill:none; 
stroke:#000000; stroke-width:0.1500; stroke-opacity:1; 
stroke-linecap:round; stroke-linejoin:round;">
<text x="70.5000" y="55.0000"
textLength="1.2024" font-size="1.3333" lengthAdjust="spacingAndGlyphs"
text-anchor="start" opacity="0" stroke-opacity="0">1</text>
<g class="stroked-text"><desc>1</desc>
<path d="M71.3606 54.8698
L70.7892 54.8698
" />
<path d="M71.0749 54.8698
L71.0749 53.8698
" />
<path d="M71.0749 53.8698
L70.9796 54.0127
" />
<path d="M70.9796 54.0127
L70.8844 54.1079
" />
<path d="M70.8844 54.1079
L70.7892 54.1555
" />
</g><g transform="rotate(-90.000000 106.5000 71.0000)">
<text x="106.5000" y="71.0000"
textLength="3.0595" font-size="1.3333" lengthAdjust="spacingAndGlyphs"
text-anchor="start" opacity="0" stroke-opacity="0">SDA</text>
</g>
<g class="stroked-text"><desc>SDA</desc>
<path d="M106.3222 70.7108
L106.3698 70.5680
" />
<path d="M106.3698 70.5680
L106.3698 70.3299
" />
<path d="M106.3698 70.3299
L106.3222 70.2346
" />
<path d="M106.3222 70.2346
L106.2746 70.1870
" />
<path d="M106.2746 70.1870
L106.1793 70.1394
" />
<path d="M106.1793 70.1394
L106.0841 70.1394
" />
<path d="M106.0841 70.1394
L105.9889 70.1870
" />
<path d="M105.9889 70.1870
L105.9412 70.2346
" />
<path d="M105.9412 70.2346
L105.8936 70.3299
" />
<path d="M105.8936 70.3299
L105.8460 70.5204
" />
<path d="M105.8460 70.5204
L105.7984 70.6156
" />
<path d="M105.7984 70.6156
L105.7508 70.6632
" />
<path d="M105.7508 70.6632
L105.6555 70.7108
" />
<path d="M105.6555 70.7108
L105.5603 70.7108
" />
<path d="M105.5603 70.7108
L105.4651 70.6632
" />
<path d="M105.4651 70.6632
L105.4174 70.6156
" />
<path d="M105.4174 70.6156
L105.3698 70.5204
" />
<path d="M105.3698 70.5204
L105.3698 70.2823
" />
<path d="M105.3698 70.2823
L105.4174 70.1394
" />
<path d="M106.3698 69.7108
L105.3698 69.7108
" />
<path d="M105.3698 69.7108
L105.3698 69.4727
" />
<path d="M105.3698 69.4727
L105.4174 69.3299
" />
<path d="M105.4174 69.3299
L105.5127 69.2346
" />
<path d="M105.5127 69.2346
L105.6079 69.1870
" />
<path d="M105.6079 69.1870
L105.7984 69.1394
" />
<path d="M105.7984 69.1394
L105.9412 69.1394
" />
<path d="M105.9412 69.1394
L106.1317 69.1870
" />
<path d="M106.1317 69.1870
L106.2270 69.2346
" />
<path d="M106.2270 69.2346
L106.3222 69.3299
" />
<path d="M106.3222 69.3299
L106.3698 69.4727
" />
<path d="M106.3698 69.4727
L106.3698 69.7108
" />
<path d="M106.0841 68.7585
L106.0841 68.2823
" />
<path d="M106.3698 68.8537
L105.3698 68.5204
" />
<path d="M105.3698 68.5204
L106.3698 68.1870
" />
</g><g transform="rotate(-90.000000 111.5000 71.0000)">
<text x="111.5000" y="71.0000"
textLength="3.0119" font-size="1.3333" lengthAdjust="spacingAndGlyphs"
text-anchor="start" opacity="0" stroke-opacity="0">SCL</text>
</g>
<g class="stroked-text"><desc>SCL</desc>
<path d="M111.3222 70.7108
L111.3698 70.5680
" />
<path d="M111.3698 70.5680
L111.3698 70.3299
" />
<path d="M111.3698 70.3299
L111.3222 70.2346
" />
<path d="M111.3222 70.2346
L111.2746 70.1870
" />
<path d="M111.2746 70.1870
L111.1793 70.1394
" />
<path d="M111.1793 70.1394
L111.0841 70.1394
" />
<path d="M111.0841 70.1394
L110.9889 70.1870
" />
<path d="M110.9889 70.1870
L110.9412 70.2346
" />
<path d="M110.9412 70.2346
L110.8936 70.3299
" />
<path d="M110.8936 70.3299
L110.8460 70.5204
" />
<path d="M110.8460 70.5204
L110.7984 70.6156
" />
<path d="M110.7984 70.6156
L110.7508 70.6632
" />
<path d="M110.7508 70.6632
L110.6555 70.7108
" />
<path d="M110.6555 70.7108
L110.5603 70.7108
" />
<path d="M110.5603 70.7108
L110.4651 70.6632
" />
<path d="M110.4651 70.6632
L110.4174 70.6156
" />
<path d="M110.4174 70.6156
L110.3698 70.5204
" />
<path d="M110.3698 70.5204
L110.3698 70.2823
" />
<path d="M110.3698 70.2823
L110.4174 70.1394
" />
<path d="M111.2746 69.1394
L111.3222 69.1870
" />
<path d="M111.3222 69.1870
L111.3698 69.3299
" />
<path d="M111.3698 69.3299
L111.3698 69.4251
" />
<path d="M111.3698 69.4251
L111.3222 69.5680
" />
<path d="M111.3222 69.5680
L111.2270 69.6632
" />
<path d="M111.2270 69.6632
L111.1317 69.7108
" />
<path d="M111.1317 69.7108
L110.9412 69.7585
" />
<path d="M110.9412 69.7585
L110.7984 69.7585
" />
<path d="M110.7984 69.7585
L110.6079 69.7108
" />
<path d="M110.6079 69.7108
L110.5127 69.6632
" />
<path d="M110.5127 69.6632
L110.4174 69.5680
" />
<path d="M110.4174 69.5680
L110.3698 69.4251
" />
<path d="M110.3698 69.4251
L110.3698 69.3299
" />
<path d="M110.3698 69.3299
L110.4174 69.1870
" />
<path d="M110.4174 69.1870
L110.4651 69.1394
" />
<path d="M111.3698 68.2346
L111.3698 68.7108
" />
<path d="M111.3698 68.7108
L110.3698 68.7108
" />
</g><text x="107.5000" y="66.0000"
textLength="7.9167" font-size="1.3333" lengthAdjust="spacingAndGlyphs"
text-anchor="middle" opacity="0" stroke-opacity="0">Light i2c0</text>
<g class="stroked-text"><desc>Light i2c0</desc>
<path d="M104.3810 65.9548
L103.9048 65.9548
" />
<path d="M103.9048 65.9548
L103.9048 64.9548
" />
<path d="M104.7143 65.9548
L104.7143 65.2882
" />
<path d="M104.7143 64.9548
L104.6667 65.0024
" />
<path d="M104.6667 65.0024
L104.7143 65.0501
" />
<path d="M104.7143 65.0501
L104.7619 65.0024
" />
<path d="M104.7619 65.0024
L104.7143 64.9548
" />
<path d="M104.7143 64.9548
L104.7143 65.0501
" />
<path d="M105.6190 65.2882
L105.6190 66.0977
" />
<path d="M105.6190 66.0977
L105.5714 66.1929
" />
<path d="M105.5714 66.1929
L105.5238 66.2405
" />
<path d="M105.5238 66.2405
L105.4286 66.2882
" />
<path d="M105.4286 66.2882
L105.2857 66.2882
" />
<path d="M105.2857 66.2882
L105.1905 66.2405
" />
<path d="M105.6190 65.9072
L105.5238 65.9548
" />
<path d="M105.5238 65.9548
L105.3333 65.9548
" />
<path d="M105.3333 65.9548
L105.2381 65.9072
" />
<path d="M105.2381 65.9072
L105.1905 65.8596
" />
<path d="M105.1905 65.8596
L105.1429 65.7643
" />
<path d="M105.1429 65.7643
L105.1429 65.4786
" />
<path d="M105.1429 65.4786
L105.1905 65.3834
" />
<path d="M105.1905 65.3834
L105.2381 65.3358
" />
<path d="M105.2381 65.3358
L105.3333 65.2882
" />
<path d="M105.3333 65.2882
L105.5238 65.2882
" />
<path d="M105.5238 65.2882
L105.6190 65.3358
" />
<path d="M106.0952 65.9548
L106.0952 64.9548
" />
<path d="M106.5238 65.9548
L106.5238 65.4310
" />
<path d="M106.5238 65.4310
L106.4762 65.3358
" />
<path d="M106.4762 65.3358
L106.3810 65.2882
" />
<path d="M106.3810 65.2882
L106.2381 65.2882
" />
<path d="M106.2381 65.2882
L106.1429 65.3358
" />
<path d="M106.1429 65.3358
L106.0952 65.3834
" />
<path d="M106.8571 65.2882
L107.2381 65.2882
" />
<path d="M107.0000 64.9548
L107.0000 65.8120
" />
<path d="M107.0000 65.8120
L107.0476 65.9072
" />
<path d="M107.0476 65.9072
L107.1429 65.9548
" />
<path d="M107.1429 65.9548
L107.2381 65.9548
" />
<path d="M108.3333 65.9548
L108.3333 65.2882
" />
<path d="M108.3333 64.9548
L108.2857 65.0024
" />
<path d="M108.2857 65.0024
L108.3333 65.0501
" />
<path d="M108.3333 65.0501
L108.3810 65.0024
" />
<path d="M108.3810 65.0024
L108.3333 64.9548
" />
<path d="M108.3333 64.9548
L108.3333 65.0501
" />
<path d="M108.7619 65.0501
L108.8095 65.0024
" />
<path d="M108.8095 65.0024
L108.9048 64.9548
" />
<path d="M108.9048 64.9548
L109.1429 64.9548
" />
<path d="M109.1429 64.9548
L109.2381 65.0024
" />
<path d="M109.2381 65.0024
L109.2857 65.0501
" />
<path d="M109.2857 65.0501
L109.3333 65.1453
" />
<path d="M109.3333 65.1453
L109.3333 65.2405
" />
<path d="M109.3333 65.2405
L109.2857 65.3834
" />
<path d="M109.2857 65.3834
L108.7143 65.9548
" />
<path d="M108.7143 65.9548
L109.3333 65.9548
" />
<path d="M110.1905 65.9072
L110.0952 65.9548
" />
<path d="M110.0952 65.9548
L109.9048 65.9548
" />
<path d="M109.9048 65.9548
L109.8095 65.9072
" />
<path d="M109.8095 65.9072
L109.7619 65.8596
" />
<path d="M109.7619 65.8596
L109.7143 65.7643
" />
<path d="M109.7143 65.7643
L109.7143 65.4786
" />
<path d="M109.7143 65.4786
L109.7619 65.3834
" />
<path d="M109.7619 65.3834
L109.8095 65.3358
" />
<path d="M109.8095 65.3358
L109.9048 65.2882
" />
<path d="M109.9048 65.2882
L110.0952 65.2882
" />
<path d="M110.0952 65.2882
L110.1905 65.3358
" />
<path d="M110.8095 64.9548
L110.9048 64.9548
" />
<path d="M110.9048 64.9548
L111.0000 65.0024
" />
<path d="M111.0000 65.0024
L111.0476 65.0501
" />
<path d="M111.0476 65.0501
L111.0952 65.1453
" />
<path d="M111.0952 65.1453
L111.1429 65.3358
" />
<path d="M111.1429 65.3358
L111.1429 65.5739
" />
<path d="M111.1429 65.5739
L111.0952 65.7643
" />
<path d="M111.0952 65.7643
L111.0476 65.8596
" />
<path d="M111.0476 65.8596
L111.0000 65.9072
" />
<path d="M111.0000 65.9072
L110.9048 65.9548
" />
<path d="M110.9048 65.9548
L110.8095 65.9548
" />
<path d="M110.8095 65.9548
L110.7143 65.9072
" />
<path d="M110.7143 65.9072
L110.6667 65.8596
" />
<path d="M110.6667 65.8596
L110.6190 65.7643
" />
<path d="M110.6190 65.7643
L110.5714 65.5739
" />
<path d="M110.5714 65.5739
L110.5714 65.3358
" />
<path d="M110.5714 65.3358
L110.6190 65.1453
" />
<path d="M110.6190 65.1453
L110.6667 65.0501
" />
<path d="M110.6667 65.0501
L110.7143 65.0024
" />
<path d="M110.7143 65.0024
L110.8095 64.9548
" />
</g><text x="119.5000" y="65.0000"
textLength="3.2976" font-size="1.3333" lengthAdjust="spacingAndGlyphs"
text-anchor="start" opacity="0" stroke-opacity="0">GND</text>
<g class="stroked-text"><desc>GND</desc>
<path d="M120.3606 63.9174
L120.2653 63.8698
" />
<path d="M120.2653 63.8698
L120.1225 63.8698
" />
<path d="M120.1225 63.8698
L119.9796 63.9174
" />
<path d="M119.9796 63.9174
L119.8844 64.0127
" />
<path d="M119.8844 64.0127
L119.8368 64.1079
" />
<path d="M119.8368 64.1079
L119.7892 64.2984
" />
<path d="M119.7892 64.2984
L119.7892 64.4412
" />
<path d="M119.7892 64.4412
L119.8368 64.6317
" />
<path d="M119.8368 64.6317
L119.8844 64.7270
" />
<path d="M119.8844 64.7270
L119.9796 64.8222
" />
<path d="M119.9796 64.8222
L120.1225 64.8698
" />
<path d="M120.1225 64.8698
L120.2177 64.8698
" />
<path d="M120.2177 64.8698
L120.3606 64.8222
" />
<path d="M120.3606 64.8222
L120.4082 64.7746
" />
<path d="M120.4082 64.7746
L120.4082 64.4412
" />
<path d="M120.4082 64.4412
L120.2177 64.4412
" />
<path d="M120.8368 64.8698
L120.8368 63.8698
" />
<path d="M120.8368 63.8698
L121.4082 64.8698
" />
<path d="M121.4082 64.8698
L121.4082 63.8698
" />
<path d="M121.8844 64.8698
L121.8844 63.8698
" />
<path d="M121.8844 63.8698
L122.1225 63.8698
" />
<path d="M122.1225 63.8698
L122.2653 63.9174
" />
<path d="M122.2653 63.9174
L122.3606 64.0127
" />
<path d="M122.3606 64.0127
L122.4082 64.1079
" />
<path d="M122.4082 64.1079
L122.4558 64.2984
" />
<path d="M122.4558 64.2984
L122.4558 64.4412
" />
<path d="M122.4558 64.4412
L122.4082 64.6317
" />
<path d="M122.4082 64.6317
L122.3606 64.7270
" />
<path d="M122.3606 64.7270
L122.2653 64.8222
" />
<path d="M122.2653 64.8222
L122.1225 64.8698
" />
<path d="M122.1225 64.8698
L121.8844 64.8698
" />
</g><g transform="rotate(-90.000000 101.5000 71.0000)">
<text x="101.5000" y="71.0000"
textLength="3.2976" font-size="1.3333" lengthAdjust="spacingAndGlyphs"
text-anchor="start" opacity="0" stroke-opacity="0">GND</text>
</g>
<g class="stroked-text"><desc>GND</desc>
<path d="M100.4174 70.1394
L100.3698 70.2346
" />
<path d="M100.3698 70.2346
L100.3698 70.3775
" />
<path d="M100.3698 70.3775
L100.4174 70.5204
" />
<path d="M100.4174 70.5204
L100.5127 70.6156
" />
<path d="M100.5127 70.6156
L100.6079 70.6632
" />
<path d="M100.6079 70.6632
L100.7984 70.7108
" />
<path d="M100.7984 70.7108
L100.9412 70.7108
" />
<path d="M100.9412 70.7108
L101.1317 70.6632
" />
<path d="M101.1317 70.6632
L101.2270 70.6156
" />
<path d="M101.2270 70.6156
L101.3222 70.5204
" />
<path d="M101.3222 70.5204
L101.3698 70.3775
" />
<path d="M101.3698 70.3775
L101.3698 70.2823
" />
<path d="M101.3698 70.2823
L101.3222 70.1394
" />
<path d="M101.3222 70.1394
L101.2746 70.0918
" />
<path d="M101.2746 70.0918
L100.9412 70.0918
" />
<path d="M100.9412 70.0918
L100.9412 70.2823
" />
<path d="M101.3698 69.6632
L100.3698 69.6632
" />
<path d="M100.3698 69.6632
L101.3698 69.0918
" />
<path d="M101.3698 69.0918
L100.3698 69.0918
" />
<path d="M101.3698 68.6156
L100.3698 68.6156
" />
<path d="M100.3698 68.6156
L100.3698 68.3775
" />
<path d="M100.3698 68.3775
L100.4174 68.2346
" />
<path d="M100.4174 68.2346
L100.5127 68.1394
" />
<path d="M100.5127 68.1394
L100.6079 68.0918
" />
<path d="M100.6079 68.0918
L100.7984 68.0442
" />
<path d="M100.7984 68.0442
L100.9412 68.0442
" />
<path d="M100.9412 68.0442
L101.1317 68.0918
" />
<path d="M101.1317 68.0918
L101.2270 68.1394
" />
<path d="M101.2270 68.1394
L101.3222 68.2346
" />
<path d="M101.3222 68.2346
L101.3698 68.3775
" />
<path d="M101.3698 68.3775
L101.3698 68.6156
" />
</g><g transform="rotate(-90.000000 81.5000 71.0000)">
<text x="81.5000" y="71.0000"
textLength="3.4881" font-size="1.3333" lengthAdjust="spacingAndGlyphs"
text-anchor="start" opacity="0" stroke-opacity="0">3.3V</text>
</g>
<g class="stroked-text"><desc>3.3V</desc>
<path d="M80.3698 70.7585
L80.3698 70.1394
" />
<path d="M80.3698 70.1394
L80.7508 70.4727
" />
<path d="M80.7508 70.4727
L80.7508 70.3299
" />
<path d="M80.7508 70.3299
L80.7984 70.2346
" />
<path d="M80.7984 70.2346
L80.8460 70.1870
" />
<path d="M80.8460 70.1870
L80.9412 70.1394
" />
<path d="M80.9412 70.1394
L81.1793 70.1394
" />
<path d="M81.1793 70.1394
L81.2746 70.1870
" />
<path d="M81.2746 70.1870
L81.3222 70.2346
" />
<path d="M81.3222 70.2346
L81.3698 70.3299
" />
<path d="M81.3698 70.3299
L81.3698 70.6156
" />
<path d="M81.3698 70.6156
L81.3222 70.7108
" />
<path d="M81.3222 70.7108
L81.2746 70.7585
" />
<path d="M81.2746 69.7108
L81.3222 69.6632
" />
<path d="M81.3222 69.6632
L81.3698 69.7108
" />
<path d="M81.3698 69.7108
L81.3222 69.7585
" />
<path d="M81.3222 69.7585
L81.2746 69.7108
" />
<path d="M81.2746 69.7108
L81.3698 69.7108
" />
<path d="M80.3698 69.3299
L80.3698 68.7108
" />
<path d="M80.3698 68.7108
L80.7508 69.0442
" />
<path d="M80.7508 69.0442
L80.7508 68.9013
" />
<path d="M80.7508 68.9013
L80.7984 68.8061
" />
<path d="M80.7984 68.8061
L80.8460 68.7585
" />
<path d="M80.8460 68.7585
L80.9412 68.7108
" />
<path d="M80.9412 68.7108
L81.1793 68.7108
" />
<path d="M81.1793 68.7108
L81.2746 68.7585
" />
<path d="M81.2746 68.7585
L81.3222 68.8061
" />
<path d="M81.3222 68.8061
L81.3698 68.9013
" />
<path d="M81.3698 68.9013
L81.3698 69.1870
" />
<path d="M81.3698 69.1870
L81.3222 69.2823
" />
<path d="M81.3222 69.2823
L81.2746 69.3299
" />
<path d="M80.3698 68.4251
L81.3698 68.0918
" />
<path d="M81.3698 68.0918
L80.3698 67.7585
" />
</g><g transform="rotate(-90.000000 86.5000 71.0000)">
<text x="86.5000" y="71.0000"
textLength="3.0595" font-size="1.3333" lengthAdjust="spacingAndGlyphs"
text-anchor="start" opacity="0" stroke-opacity="0">SDA</text>
</g>
<g class="stroked-text"><desc>SDA</desc>
<path d="M86.3222 70.7108
L86.3698 70.5680
" />
<path d="M86.3698 70.5680
L86.3698 70.3299
" />
<path d="M86.3698 70.3299
L86.3222 70.2346
" />
<path d="M86.3222 70.2346
L86.2746 70.1870
" />
<path d="M86.2746 70.1870
L86.1793 70.1394
" />
<path d="M86.1793 70.1394
L86.0841 70.1394
" />
<path d="M86.0841 70.1394
L85.9889 70.1870
" />
<path d="M85.9889 70.1870
L85.9412 70.2346
" />
<path d="M85.9412 70.2346
L85.8936 70.3299
" />
<path d="M85.8936 70.3299
L85.8460 70.5204
" />
<path d="M85.8460 70.5204
L85.7984 70.6156
" />
<path d="M85.7984 70.6156
L85.7508 70.6632
" />
<path d="M85.7508 70.6632
L85.6555 70.7108
" />
<path d="M85.6555 70.7108
L85.5603 70.7108
" />
<path d="M85.5603 70.7108
L85.4651 70.6632
" />
<path d="M85.4651 70.6632
L85.4174 70.6156
" />
<path d="M85.4174 70.6156
L85.3698 70.5204
" />
<path d="M85.3698 70.5204
L85.3698 70.2823
" />
<path d="M85.3698 70.2823
L85.4174 70.1394
" />
<path d="M86.3698 69.7108
L85.3698 69.7108
" />
<path d="M85.3698 69.7108
L85.3698 69.4727
" />
<path d="M85.3698 69.4727
L85.4174 69.3299
" />
<path d="M85.4174 69.3299
L85.5127 69.2346
" />
<path d="M85.5127 69.2346
L85.6079 69.1870
" />
<path d="M85.6079 69.1870
L85.7984 69.1394
" />
<path d="M85.7984 69.1394
L85.9412 69.1394
" />
<path d="M85.9412 69.1394
L86.1317 69.1870
" />
<path d="M86.1317 69.1870
L86.2270 69.2346
" />
<path d="M86.2270 69.2346
L86.3222 69.3299
" />
<path d="M86.3222 69.3299
L86.3698 69.4727
" />
<path d="M86.3698 69.4727
L86.3698 69.7108
" />
<path d="M86.0841 68.7585
L86.0841 68.2823
" />
<path d="M86.3698 68.8537
L85.3698 68.5204
" />
<path d="M85.3698 68.5204
L86.3698 68.1870
" />
</g><g transform="rotate(-90.000000 96.5000 71.0000)">
<text x="96.5000" y="71.0000"
textLength="3.2976" font-size="1.3333" lengthAdjust="spacingAndGlyphs"
text-anchor="start" opacity="0" stroke-opacity="0">GND</text>
</g>
<g class="stroked-text"><desc>GND</desc>
<path d="M95.4174 70.1394
L95.3698 70.2346
" />
<path d="M95.3698 70.2346
L95.3698 70.3775
" />
<path d="M95.3698 70.3775
L95.4174 70.5204
" />
<path d="M95.4174 70.5204
L95.5127 70.6156
" />
<path d="M95.5127 70.6156
L95.6079 70.6632
" />
<path d="M95.6079 70.6632
L95.7984 70.7108
" />
<path d="M95.7984 70.7108
L95.9412 70.7108
" />
<path d="M95.9412 70.7108
L96.1317 70.6632
" />
<path d="M96.1317 70.6632
L96.2270 70.6156
" />
<path d="M96.2270 70.6156
L96.3222 70.5204
" />
<path d="M96.3222 70.5204
L96.3698 70.3775
" />
<path d="M96.3698 70.3775
L96.3698 70.2823
" />
<path d="M96.3698 70.2823
L96.3222 70.1394
" />
<path d="M96.3222 70.1394
L96.2746 70.0918
" />
<path d="M96.2746 70.0918
L95.9412 70.0918
" />
<path d="M95.9412 70.0918
L95.9412 70.2823
" />
<path d="M96.3698 69.6632
L95.3698 69.6632
" />
<path d="M95.3698 69.6632
L96.3698 69.0918
" />
<path d="M96.3698 69.0918
L95.3698 69.0918
" />
<path d="M96.3698 68.6156
L95.3698 68.6156
" />
<path d="M95.3698 68.6156
L95.3698 68.3775
" />
<path d="M95.3698 68.3775
L95.4174 68.2346
" />
<path d="M95.4174 68.2346
L95.5127 68.1394
" />
<path d="M95.5127 68.1394
L95.6079 68.0918
" />
<path d="M95.6079 68.0918
L95.7984 68.0442
" />
<path d="M95.7984 68.0442
L95.9412 68.0442
" />
<path d="M95.9412 68.0442
L96.1317 68.0918
" />
<path d="M96.1317 68.0918
L96.2270 68.1394
" />
<path d="M96.2270 68.1394
L96.3222 68.2346
" />
<path d="M96.3222 68.2346
L96.3698 68.3775
" />
<path d="M96.3698 68.3775
L96.3698 68.6156
" />
</g><g transform="rotate(-90.000000 91.5000 71.0000)">
<text x="91.5000" y="71.0000"
textLength="3.0119" font-size="1.3333" lengthAdjust="spacingAndGlyphs"
text-anchor="start" opacity="0" stroke-opacity="0">SCL</text>
</g>
<g class="stroked-text"><desc>SCL</desc>
<path d="M91.3222 70.7108
L91.3698 70.5680
" />
<path d="M91.3698 70.5680
L91.3698 70.3299
" />
<path d="M91.3698 70.3299
L91.3222 70.2346
" />
<path d="M91.3222 70.2346
L91.2746 70.1870
" />
<path d="M91.2746 70.1870
L91.1793 70.1394
" />
<path d="M91.1793 70.1394
L91.0841 70.1394
" />
<path d="M91.0841 70.1394
L90.9889 70.1870
" />
<path d="M90.9889 70.1870
L90.9412 70.2346
" />
<path d="M90.9412 70.2346
L90.8936 70.3299
" />
<path d="M90.8936 70.3299
L90.8460 70.5204
" />
<path d="M90.8460 70.5204
L90.7984 70.6156
" />
<path d="M90.7984 70.6156
L90.7508 70.6632
" />
<path d="M90.7508 70.6632
L90.6555 70.7108
" />
<path d="M90.6555 70.7108
L90.5603 70.7108
" />
<path d="M90.5603 70.7108
L90.4651 70.6632
" />
<path d="M90.4651 70.6632
L90.4174 70.6156
" />
<path d="M90.4174 70.6156
L90.3698 70.5204
" />
<path d="M90.3698 70.5204
L90.3698 70.2823
" />
<path d="M90.3698 70.2823
L90.4174 70.1394
" />
<path d="M91.2746 69.1394
L91.3222 69.1870
" />
<path d="M91.3222 69.1870
L91.3698 69.3299
" />
<path d="M91.3698 69.3299
L91.3698 69.4251
" />
<path d="M91.3698 69.4251
L91.3222 69.5680
" />
<path d="M91.3222 69.5680
L91.2270 69.6632
" />
<path d="M91.2270 69.6632
L91.1317 69.7108
" />
<path d="M91.1317 69.7108
L90.9412 69.7585
" />
<path d="M90.9412 69.7585
L90.7984 69.7585
" />
<path d="M90.7984 69.7585
L90.6079 69.7108
" />
<path d="M90.6079 69.7108
L90.5127 69.6632
" />
<path d="M90.5127 69.6632
L90.4174 69.5680
" />
<path d="M90.4174 69.5680
L90.3698 69.4251
" />
<path d="M90.3698 69.4251
L90.3698 69.3299
" />
<path d="M90.3698 69.3299
L90.4174 69.1870
" />
<path d="M90.4174 69.1870
L90.4651 69.1394
" />
<path d="M91.3698 68.2346
L91.3698 68.7108
" />
<path d="M91.3698 68.7108
L90.3698 68.7108
" />
</g><g transform="rotate(-90.000000 116.5000 71.0000)">
<text x="116.5000" y="71.0000"
textLength="3.4881" font-size="1.3333" lengthAdjust="spacingAndGlyphs"
text-anchor="start" opacity="0" stroke-opacity="0">3.3V</text>
</g>
<g class="stroked-text"><desc>3.3V</desc>
<path d="M115.3698 70.7585
L115.3698 70.1394
" />
<path d="M115.3698 70.1394
L115.7508 70.4727
" />
<path d="M115.7508 70.4727
L115.7508 70.3299
" />
<path d="M115.7508 70.3299
L115.7984 70.2346
" />
<path d="M115.7984 70.2346
L115.8460 70.1870
" />
<path d="M115.8460 70.1870
L115.9412 70.1394
" />
<path d="M115.9412 70.1394
L116.1793 70.1394
" />
<path d="M116.1793 70.1394
L116.2746 70.1870
" />
<path d="M116.2746 70.1870
L116.3222 70.2346
" />
<path d="M116.3222 70.2346
L116.3698 70.3299
" />
<path d="M116.3698 70.3299
L116.3698 70.6156
" />
<path d="M116.3698 70.6156
L116.3222 70.7108
" />
<path d="M116.3222 70.7108
L116.2746 70.7585
" />
<path d="M116.2746 69.7108
L116.3222 69.6632
" />
<path d="M116.3222 69.6632
L116.3698 69.7108
" />
<path d="M116.3698 69.7108
L116.3222 69.7585
" />
<path d="M116.3222 69.7585
L116.2746 69.7108
" />
<path d="M116.2746 69.7108
L116.3698 69.7108
" />
<path d="M115.3698 69.3299
L115.3698 68.7108
" />
<path d="M115.3698 68.7108
L115.7508 69.0442
" />
<path d="M115.7508 69.0442
L115.7508 68.9013
" />
<path d="M115.7508 68.9013
L115.7984 68.8061
" />
<path d="M115.7984 68.8061
L115.8460 68.7585
" />
<path d="M115.8460 68.7585
L115.9412 68.7108
" />
<path d="M115.9412 68.7108
L116.1793 68.7108
" />
<path d="M116.1793 68.7108
L116.2746 68.7585
" />
<path d="M116.2746 68.7585
L116.3222 68.8061
" />
<path d="M116.3222 68.8061
L116.3698 68.9013
" />
<path d="M116.3698 68.9013
L116.3698 69.1870
" />
<path d="M116.3698 69.1870
L116.3222 69.2823
" />
<path d="M116.3222 69.2823
L116.2746 69.3299
" />
<path d="M115.3698 68.4251
L116.3698 68.0918
" />
<path d="M116.3698 68.0918
L115.3698 67.7585
" />
</g><text x="120.5000" y="60.0000"
textLength="2.0595" font-size="1.3333" lengthAdjust="spacingAndGlyphs"
text-anchor="start" opacity="0" stroke-opacity="0">5V</text>
<g class="stroked-text"><desc>5V</desc>
<path d="M121.3130 58.8698
L120.8368 58.8698
" />
<path d="M120.8368 58.8698
L120.7892 59.3460
" />
<path d="M120.7892 59.3460
L120.8368 59.2984
" />
<path d="M120.8368 59.2984
L120.9320 59.2508
" />
<path d="M120.9320 59.2508
L121.1701 59.2508
" />
<path d="M121.1701 59.2508
L121.2653 59.2984
" />
<path d="M121.2653 59.2984
L121.3130 59.3460
" />
<path d="M121.3130 59.3460
L121.3606 59.4412
" />
<path d="M121.3606 59.4412
L121.3606 59.6793
" />
<path d="M121.3606 59.6793
L121.3130 59.7746
" />
<path d="M121.3130 59.7746
L121.2653 59.8222
" />
<path d="M121.2653 59.8222
L121.1701 59.8698
" />
<path d="M121.1701 59.8698
L120.9320 59.8698
" />
<path d="M120.9320 59.8698
L120.8368 59.8222
" />
<path d="M120.8368 59.8222
L120.7892 59.7746
" />
<path d="M121.6463 58.8698
L121.9796 59.8698
" />
<path d="M121.9796 59.8698
L122.3130 58.8698
" />
</g><g transform="rotate(-90.000000 76.5000 71.0000)">
<text x="76.5000" y="71.0000"
textLength="2.0595" font-size="1.3333" lengthAdjust="spacingAndGlyphs"
text-anchor="start" opacity="0" stroke-opacity="0">5V</text>
</g>
<g class="stroked-text"><desc>5V</desc>
<path d="M75.3698 70.1870
L75.3698 70.6632
" />
<path d="M75.3698 70.6632
L75.8460 70.7108
" />
<path d="M75.8460 70.7108
L75.7984 70.6632
" />
<path d="M75.7984 70.6632
L75.7508 70.5680
" />
<path d="M75.7508 70.5680
L75.7508 70.3299
" />
<path d="M75.7508 70.3299
L75.7984 70.2346
" />
<path d="M75.7984 70.2346
L75.8460 70.1870
" />
<path d="M75.8460 70.1870
L75.9412 70.1394
" />
<path d="M75.9412 70.1394
L76.1793 70.1394
" />
<path d="M76.1793 70.1394
L76.2746 70.1870
" />
<path d="M76.2746 70.1870
L76.3222 70.2346
" />
<path d="M76.3222 70.2346
L76.3698 70.3299
" />
<path d="M76.3698 70.3299
L76.3698 70.5680
" />
<path d="M76.3698 70.5680
L76.3222 70.6632
" />
<path d="M76.3222 70.6632
L76.2746 70.7108
" />
<path d="M75.3698 69.8537
L76.3698 69.5204
" />
<path d="M76.3698 69.5204
L75.3698 69.1870
" />
</g><g transform="rotate(-90.000000 117.0000 61.5000)">
<text x="117.0000" y="62.0000"
textLength="3.3929" font-size="1.3333" lengthAdjust="spacingAndGlyphs"
text-anchor="middle" opacity="0" stroke-opacity="0">PWR</text>
</g>
<g class="stroked-text"><desc>PWR</desc>
<path d="M117.4548 62.8333
L116.4548 62.8333
" />
<path d="M116.4548 62.8333
L116.4548 62.4524
" />
<path d="M116.4548 62.4524
L116.5024 62.3571
" />
<path d="M116.5024 62.3571
L116.5501 62.3095
" />
<path d="M116.5501 62.3095
L116.6453 62.2619
" />
<path d="M116.6453 62.2619
L116.7882 62.2619
" />
<path d="M116.7882 62.2619
L116.8834 62.3095
" />
<path d="M116.8834 62.3095
L116.9310 62.3571
" />
<path d="M116.9310 62.3571
L116.9786 62.4524
" />
<path d="M116.9786 62.4524
L116.9786 62.8333
" />
<path d="M116.4548 61.9286
L117.4548 61.6905
" />
<path d="M117.4548 61.6905
L116.7405 61.5000
" />
<path d="M116.7405 61.5000
L117.4548 61.3095
" />
<path d="M117.4548 61.3095
L116.4548 61.0714
" />
<path d="M117.4548 60.1190
L116.9786 60.4524
" />
<path d="M117.4548 60.6905
L116.4548 60.6905
" />
<path d="M116.4548 60.6905
L116.4548 60.3095
" />
<path d="M116.4548 60.3095
L116.5024 60.2143
" />
<path d="M116.5024 60.2143
L116.5501 60.1667
" />
<path d="M116.5501 60.1667
L116.6453 60.1190
" />
<path d="M116.6453 60.1190
L116.7882 60.1190
" />
<path d="M116.7882 60.1190
L116.8834 60.1667
" />
<path d="M116.8834 60.1667
L116.9310 60.2143
" />
<path d="M116.9310 60.2143
L116.9786 60.3095
" />
<path d="M116.9786 60.3095
L116.9786 60.6905
" />
</g><text x="86.5000" y="66.0000"
textLength="6.1071" font-size="1.3333" lengthAdjust="spacingAndGlyphs"
text-anchor="middle" opacity="0" stroke-opacity="0">Sensors</text>
<g class="stroked-text"><desc>Sensors</desc>
<path d="M83.7619 65.9072
L83.9048 65.9548
" />
<path d="M83.9048 65.9548
L84.1429 65.9548
" />
<path d="M84.1429 65.9548
L84.2381 65.9072
" />
<path d="M84.2381 65.9072
L84.2857 65.8596
" />
<path d="M84.2857 65.8596
L84.3333 65.7643
" />
<path d="M84.3333 65.7643
L84.3333 65.6691
" />
<path d="M84.3333 65.6691
L84.2857 65.5739
" />
<path d="M84.2857 65.5739
L84.2381 65.5262
" />
<path d="M84.2381 65.5262
L84.1429 65.4786
" />
<path d="M84.1429 65.4786
L83.9524 65.4310
" />
<path d="M83.9524 65.4310
L83.8571 65.3834
" />
<path d="M83.8571 65.3834
L83.8095 65.3358
" />
<path d="M83.8095 65.3358
L83.7619 65.2405
" />
<path d="M83.7619 65.2405
L83.7619 65.1453
" />
<path d="M83.7619 65.1453
L83.8095 65.0501
" />
<path d="M83.8095 65.0501
L83.8571 65.0024
" />
<path d="M83.8571 65.0024
L83.9524 64.9548
" />
<path d="M83.9524 64.9548
L84.1905 64.9548
" />
<path d="M84.1905 64.9548
L84.3333 65.0024
" />
<path d="M85.1429 65.9072
L85.0476 65.9548
" />
<path d="M85.0476 65.9548
L84.8571 65.9548
" />
<path d="M84.8571 65.9548
L84.7619 65.9072
" />
<path d="M84.7619 65.9072
L84.7143 65.8120
" />
<path d="M84.7143 65.8120
L84.7143 65.4310
" />
<path d="M84.7143 65.4310
L84.7619 65.3358
" />
<path d="M84.7619 65.3358
L84.8571 65.2882
" />
<path d="M84.8571 65.2882
L85.0476 65.2882
" />
<path d="M85.0476 65.2882
L85.1429 65.3358
" />
<path d="M85.1429 65.3358
L85.1905 65.4310
" />
<path d="M85.1905 65.4310
L85.1905 65.5262
" />
<path d="M85.1905 65.5262
L84.7143 65.6215
" />
<path d="M85.6190 65.2882
L85.6190 65.9548
" />
<path d="M85.6190 65.3834
L85.6667 65.3358
" />
<path d="M85.6667 65.3358
L85.7619 65.2882
" />
<path d="M85.7619 65.2882
L85.9048 65.2882
" />
<path d="M85.9048 65.2882
L86.0000 65.3358
" />
<path d="M86.0000 65.3358
L86.0476 65.4310
" />
<path d="M86.0476 65.4310
L86.0476 65.9548
" />
<path d="M86.4762 65.9072
L86.5714 65.9548
" />
<path d="M86.5714 65.9548
L86.7619 65.9548
" />
<path d="M86.7619 65.9548
L86.8571 65.9072
" />
<path d="M86.8571 65.9072
L86.9048 65.8120
" />
<path d="M86.9048 65.8120
L86.9048 65.7643
" />
<path d="M86.9048 65.7643
L86.8571 65.6691
" />
<path d="M86.8571 65.6691
L86.7619 65.6215
" />
<path d="M86.7619 65.6215
L86.6190 65.6215
" />
<path d="M86.6190 65.6215
L86.5238 65.5739
" />
<path d="M86.5238 65.5739
L86.4762 65.4786
" />
<path d="M86.4762 65.4786
L86.4762 65.4310
" />
<path d="M86.4762 65.4310
L86.5238 65.3358
" />
<path d="M86.5238 65.3358
L86.6190 65.2882
" />
<path d="M86.6190 65.2882
L86.7619 65.2882
" />
<path d="M86.7619 65.2882
L86.8571 65.3358
" />
<path d="M87.4762 65.9548
L87.3810 65.9072
" />
<path d="M87.3810 65.9072
L87.3333 65.8596
" />
<path d="M87.3333 65.8596
L87.2857 65.7643
" />
<path d="M87.2857 65.7643
L87.2857 65.4786
" />
<path d="M87.2857 65.4786
L87.3333 65.3834
" />
<path d="M87.3333 65.3834
L87.3810 65.3358
" />
<path d="M87.3810 65.3358
L87.4762 65.2882
" />
<path d="M87.4762 65.2882
L87.6190 65.2882
" />
<path d="M87.6190 65.2882
L87.7143 65.3358
" />
<path d="M87.7143 65.3358
L87.7619 65.3834
" />
<path d="M87.7619 65.3834
L87.8095 65.4786
" />
<path d="M87.8095 65.4786
L87.8095 65.7643
" />
<path d="M87.8095 65.7643
L87.7619 65.8596
" />
<path d="M87.7619 65.8596
L87.7143 65.9072
" />
<path d="M87.7143 65.9072
L87.6190 65.9548
" />
<path d="M87.6190 65.9548
L87.4762 65.9548
" />
<path d="M88.2381 65.9548
L88.2381 65.2882
" />
<path d="M88.2381 65.4786
L88.2857 65.3834
" />
<path d="M88.2857 65.3834
L88.3333 65.3358
" />
<path d="M88.3333 65.3358
L88.4286 65.2882
" />
<path d="M88.4286 65.2882
L88.5238 65.2882
" />
<path d="M88.8095 65.9072
L88.9048 65.9548
" />
<path d="M88.9048 65.9548
L89.0952 65.9548
" />
<path d="M89.0952 65.9548
L89.1905 65.9072
" />
<path d="M89.1905 65.9072
L89.2381 65.8120
" />
<path d="M89.2381 65.8120
L89.2381 65.7643
" />
<path d="M89.2381 65.7643
L89.1905 65.6691
" />
<path d="M89.1905 65.6691
L89.0952 65.6215
" />
<path d="M89.0952 65.6215
L88.9524 65.6215
" />
<path d="M88.9524 65.6215
L88.8571 65.5739
" />
<path d="M88.8571 65.5739
L88.8095 65.4786
" />
<path d="M88.8095 65.4786
L88.8095 65.4310
" />
<path d="M88.8095 65.4310
L88.8571 65.3358
" />
<path d="M88.8571 65.3358
L88.9524 65.2882
" />
<path d="M88.9524 65.2882
L89.0952 65.2882
" />
<path d="M89.0952 65.2882
L89.1905 65.3358
" />
</g></g>
<g style="fill:none; 
stroke:#000000; stroke-width:0.1200; stroke-opacity:1; 
stroke-linecap:round; stroke-linejoin:round;">
<path d="M123.0900 64.7000
L123.6900 65.0000
" />
<path d="M123.0900 65.3000
L123.0900 64.7000
" />
<path d="M123.6900 65.0000
L123.0900 65.3000
" />
<path d="M123.8900 56.2700
L123.8900 68.6500
" />
<path d="M123.8900 68.6500
L136.1100 68.6500
" />
<path d="M132.8100 56.2700
L134.6100 56.2700
" />
<path d="M132.8100 68.6500
L132.8100 56.2700
" />
<path d="M134.6100 56.2700
L134.6100 68.6500
" />
<path d="M134.6100 59.1700
L134.6100 60.6700
" />
<path d="M134.6100 60.6700
L136.1100 60.9200
" />
<path d="M134.6100 64.2500
L134.6100 65.7500
" />
<path d="M134.6100 65.7500
L136.1100 66.0000
" />
<path d="M134.6100 68.6500
L132.8100 68.6500
" />
<path d="M136.1100 56.2700
L123.8900 56.2700
" />
<path d="M136.1100 58.9200
L134.6100 59.1700
" />
<path d="M136.1100 60.9200
L136.1100 58.9200
" />
<path d="M136.1100 64.0000
L134.6100 64.2500
" />
<path d="M136.1100 66.0000
L136.1100 64.0000
" />
<path d="M136.1100 68.6500
L136.1100 56.2700
" />
<path d="M72.8500 71.8900
L72.8500 84.1100
" />
<path d="M72.8500 80.8100
L120.7900 80.8100
" />
<path d="M72.8500 82.6100
L72.8500 80.8100
" />
<path d="M72.8500 84.1100
L120.7900 84.1100
" />
<path d="M75.5000 84.1100
L77.5000 84.1100
" />
<path d="M75.7500 82.6100
L75.5000 84.1100
" />
<path d="M76.2000 71.0900
L76.8000 71.0900
" />
<path d="M76.5000 71.6900
L76.2000 71.0900
" />
<path d="M76.8000 71.0900
L76.5000 71.6900
" />
<path d="M77.2500 82.6100
L75.7500 82.6100
" />
<path d="M77.5000 84.1100
L77.2500 82.6100
" />
<path d="M80.5800 84.1100
L82.5800 84.1100
" />
<path d="M80.8300 82.6100
L80.5800 84.1100
" />
<path d="M82.3300 82.6100
L80.8300 82.6100
" />
<path d="M82.5800 84.1100
L82.3300 82.6100
" />
<path d="M85.6600 84.1100
L87.6600 84.1100
" />
<path d="M85.9100 82.6100
L85.6600 84.1100
" />
<path d="M87.4100 82.6100
L85.9100 82.6100
" />
<path d="M87.6600 84.1100
L87.4100 82.6100
" />
<path d="M90.7400 84.1100
L92.7400 84.1100
" />
<path d="M90.9900 82.6100
L90.7400 84.1100
" />
<path d="M92.4900 82.6100
L90.9900 82.6100
" />
<path d="M92.7400 84.1100
L92.4900 82.6100
" />
<path d="M95.8200 84.1100
L97.8200 84.1100
" />
<path d="M96.0700 82.6100
L95.8200 84.1100
" />
<path d="M97.5700 82.6100
L96.0700 82.6100
" />
<path d="M97.8200 84.1100
L97.5700 82.6100
" />
<path d="M100.9000 84.1100
L102.9000 84.1100
" />
<path d="M101.1500 82.6100
L100.9000 84.1100
" />
<path d="M102.6500 82.6100
L101.1500 82.6100
" />
<path d="M102.9000 84.1100
L102.6500 82.6100
" />
<path d="M105.9800 84.1100
L107.9800 84.1100
" />
<path d="M106.2300 82.6100
L105.9800 84.1100
" />
<path d="M107.7300 82.6100
L106.2300 82.6100
" />
<path d="M107.9800 84.1100
L107.7300 82.6100
" />
<path d="M111.0600 84.1100
L113.0600 84.1100
" />
<path d="M111.3100 82.6100
L111.0600 84.1100
" />
<path d="M112.8100 82.6100
L111.3100 82.6100
" />
<path d="M113.0600 84.1100
L112.8100 82.6100
" />
<path d="M116.1400 84.1100
L118.1400 84.1100
" />
<path d="M116.3900 82.6100
L116.1400 84.1100
" />
<path d="M117.8900 82.6100
L116.3900 82.6100
" />
<path d="M118.1400 84.1100
L117.8900 82.6100
" />
<path d="M120.7900 71.8900
L72.8500 71.8900
" />
<path d="M120.7900 80.8100
L120.7900 82.6100
" />
<path d="M120.7900 82.6100
L72.8500 82.6100
" />
<path d="M120.7900 84.1100
L120.7900 71.8900
" />
<path d="M71.5400 48.9000
L122.4600 48.9000
" />
<path d="M71.5400 51.5000
L71.5400 48.9000
" />
<path d="M71.5400 54.1000
L71.5400 52.7700
" />
<path d="M72.8700 54.1000
L71.5400 54.1000
" />
<path d="M74.1400 51.5000
L71.5400 51.5000
" />
<path d="M74.1400 54.1000
L74.1400 51.5000
" />
<path d="M74.1400 54.1000
L122.4600 54.1000
" />
<path d="M122.4600 54.1000
L122.4600 48.9000
" />
</g> 
</svg>
